<svg fill="none" height="100%" width="100%" viewBox="0 0 500 500" xmlns:xlink="http://www.w3.org/1999/xlink" xmlns="http://www.w3.org/2000/svg"><defs><clipPath id="i0"><rect height="2000" width="2000" y="0" x="0" /></clipPath><radialGradient id="i1" gradientUnits="userSpaceOnUse" spreadMethod="pad" cx="-0.282" cy="13.803" r="25.94" fy="13.803" fx="-0.282"><stop offset="0%" stop-color="#3ffad5" /><stop offset="50%" stop-color="#38f4e0" /><stop offset="100%" stop-color="#30edeb" /></radialGradient><g id="i2"><g id="i3"><g transform="translate(983.73,1265.851)"><animateTransform repeatCount="indefinite" type="translate" attributeName="transform" dur="3.017s" begin="0s" calcMode="spline" values="983.73 1265.851; 987.73 1105.851; 983.73 1265.851; 983.73 1265.851" keyTimes="0; 0.497238; 0.994475; 1" keySplines="0.217 0 0.282 1; 0.333 0 0.667 1; 0 0 1 1" fill="freeze" /><g transform="scale(7.1,7.1) translate(-138.215,-179.134)"><g id="i4"><g transform="translate(139.381,137.647)"><g transform="rotate(0)"><animateTransform repeatCount="indefinite" type="rotate" attributeName="transform" dur="3.017s" begin="0s" calcMode="spline" values="0; -9; 0; 0" keyTimes="0; 0.41989; 0.723757; 1" keySplines="0.167 0.167 0.667 1; 0.333 0 0.667 1; 0 0 1 1" fill="freeze" /><g transform="scale(1,1) translate(-139.381,-137.647)"><g id="i5" transform="matrix(1,0,0,1,101.929,83.129)"><g id="i6" fill="#dbccf5"><path fill-rule="evenodd" d="M-8.126,-7.758C-10.834,0.677,-5.836,17.338,-5.836,17.338C-5.836,17.338,10.834,-11.004,10.834,-11.004C10.834,-11.004,4.58,-16.401,-3.075,-17.338C-3.075,-17.338,-5.419,-16.193,-8.126,-7.758Z" /></g></g><g id="i7" transform="matrix(1,0,0,1,100.519,76.579)"><g id="i6" fill="#a18def"><path fill-rule="evenodd" d="M-4.633,-6.583C-4.633,-6.583,2.568,10.788,2.568,10.788C2.568,10.788,4.385,8.909,4.385,8.909C4.633,-4.976,-1.665,-10.788,-1.665,-10.788C-3.406,-9.434,-4.633,-6.583,-4.633,-6.583Z" /></g></g><g id="i8" transform="matrix(1,0,0,1,175.355,83.129)"><g id="i6" fill="#dbccf5"><path fill-rule="evenodd" d="M-10.833,-11.004C-10.833,-11.004,5.837,17.338,5.837,17.338C5.837,17.338,10.833,0.677,8.126,-7.758C5.419,-16.193,3.074,-17.338,3.074,-17.338C-4.579,-16.401,-10.833,-11.004,-10.833,-11.004Z" /></g></g><g id="i9" transform="matrix(1,0,0,1,176.922,75.214)"><g id="i6" fill="#a18def"><path fill-rule="evenodd" d="M1.508,-9.423C1.508,-9.423,-4.686,-2.785,-4.686,7.914C-4.686,7.914,-2.291,9.425,-2.291,9.425C-2.291,9.425,4.686,-5.016,4.686,-5.016C4.686,-5.016,2.434,-9.425,1.545,-9.425C1.532,-9.425,1.52,-9.424,1.508,-9.423Z" /></g></g><g id="i10" transform="matrix(1,0,0,1,181.973,85.091)"><g id="i6" fill="#30edeb"><path fill-rule="evenodd" d="M-7.568,-1.181C-7.568,-1.181,1.897,17.034,1.897,17.034C1.897,17.034,9.216,9.909,6.404,-1.963C3.593,-13.833,-3.202,-17.035,-3.202,-17.035C-9.215,-10.319,-7.568,-1.181,-7.568,-1.181Z" /></g></g><g id="i11" transform="matrix(1,0,0,1,95.313,85.091)"><g id="i6" fill="#30edeb"><path fill-rule="evenodd" d="M-6.405,-1.963C-9.215,9.909,-1.898,17.034,-1.898,17.034C-1.898,17.034,7.568,-1.181,7.568,-1.181C7.568,-1.181,9.215,-10.319,3.202,-17.035C3.202,-17.035,-3.593,-13.833,-6.405,-1.963Z" /></g></g><g id="i12" transform="matrix(1,0,0,1,138.505,107.546)"><g id="i6" fill="#d9cef7"><path fill-rule="evenodd" d="M-43.439,-11.017C-48.805,3.286,-49.417,18.825,-43.844,29.163C-35.304,44.99,30.291,46.441,44.247,26.87C48.938,20.292,49.417,9.864,46.63,-1.092C41.124,-22.739,22.848,-46.44,-0.943,-46.44C-21.157,-46.44,-36.399,-29.787,-43.439,-11.017Z" /></g></g><g id="i13" transform="matrix(1,0,0,1,141.549,97.509)"><g id="i6" fill="#dfe3fb"><path fill-rule="evenodd" d="" /></g><path d="M-41.993,18.755C-38.869,32.084,18.787,33.535,32.948,21.456C47.11,9.377,26.717,-33.535,-4.522,-31.661C-33.094,-29.946,-47.11,-3.077,-41.993,18.755Z" fill="#dfe3fb" /></g><g id="i14" transform="matrix(1,0,0,1,141.098,96.797)"><g id="i6" fill="#0d4ca4"><path fill-rule="evenodd" d="M-4.371,-32.568C-32.942,-30.854,-46.958,-3.984,-41.841,17.848C-38.718,31.176,18.938,32.628,33.1,20.549C46.959,8.727,27.72,-32.623,-2.388,-32.628C-3.046,-32.628,-3.704,-32.608,-4.371,-32.568Z" /></g></g><g id="i15" transform="matrix(1,0,0,1,138.801,122.679)"><g id="i6" fill="#beaeeb"><path fill-rule="evenodd" d="M43.951,11.737C29.995,31.307,-35.6,29.856,-44.14,14.029C-49.713,3.691,-49.103,-11.848,-43.736,-26.151C-43.736,-26.159,-43.728,-26.159,-43.728,-26.159C-43.959,-25.318,-49.457,-5.27,-43.843,3.55C-38.106,12.57,-15.403,11.316,8.966,10.278C33.333,9.231,41.396,5.694,45.485,-1.181C48.708,-6.589,45.468,-18.526,43.943,-23.356C43.943,-23.356,46.334,-16.226,46.334,-16.226C49.12,-5.27,48.642,5.158,43.951,11.737Z" /></g></g><g id="i16" transform="matrix(1,0,0,1,138.129,142.04)"><g id="i6" fill="#8e7eeb"><path fill-rule="evenodd" d="M-27.516,-4.706C-31.729,-3.931,-34.408,-2.984,-34.565,-1.904C-34.821,-0.132,-33.073,1.591,-29.462,3.035C-29.462,3.035,-29.454,3.035,-29.454,3.035C-23.955,5.235,-14.129,6.769,-0.494,6.785C11.822,6.793,34.821,2.514,33.535,-1.904C33.469,-2.136,33.338,-2.357,33.148,-2.579C32.398,-3.453,30.708,-4.17,28.326,-4.755C28.285,-4.763,28.251,-4.772,28.211,-4.781C28.013,-4.829,27.806,-4.881,27.592,-4.93C26.594,-5.152,25.489,-5.349,24.303,-5.53C18.566,-6.4,10.79,-6.793,2.77,-6.793C-8.514,-6.793,-20.279,-6.016,-27.516,-4.706Z" /></g></g><g id="i17" transform="matrix(1,0,0,1,137.529,140.161)"><g id="i6" fill="#685ed8"><path fill-rule="evenodd" d="M33.979,-1.112C33.929,-0.98,33.855,-0.84,33.748,-0.7C32.413,1.188,26.996,3.619,26.996,3.619C26.996,3.619,6.181,-4.896,-10.693,-1.112C-27.568,2.672,-28.854,4.914,-28.854,4.914C-28.854,4.914,-28.862,4.914,-28.862,4.914C-32.473,3.471,-34.22,1.748,-33.965,-0.024C-33.808,-1.104,-31.129,-2.052,-26.917,-2.827C-14.535,-5.069,11.096,-5.745,24.904,-3.652C26.347,-3.396,27.657,-3.14,28.811,-2.901C28.852,-2.893,28.885,-2.885,28.926,-2.877C32.199,-2.168,34.136,-1.541,33.979,-1.112Z" /></g></g><g id="i18" transform="matrix(1,0,0,1,138.167,139.052)"><g id="i6" fill="#6642ab"><path fill-rule="evenodd" d="M-27.554,-1.718C-25.329,1.283,-15.734,3.772,0.061,3.797C8.874,3.805,24.331,1.142,27.554,-1.941C21.75,-3.234,12.432,-3.805,2.757,-3.805C-8.535,-3.805,-20.313,-3.028,-27.554,-1.718Z" /></g></g><g id="i19" transform="matrix(1,0,0,1,500,200)"><path fill="#8d83d7" fill-rule="evenodd" d="M-405.339,-63.292C-405.339,-63.292,-402.569,-66.524,-397.135,-69.128C-391.7,-71.731,-386.704,-73.77,-385.933,-75.861C-385.161,-77.953,-400.839,-76.719,-400.839,-76.719C-400.839,-76.719,-408.644,-73.332,-408.644,-73.332C-408.644,-73.332,-407.42,-67.038,-405.339,-63.292Z" /></g><g id="i20" transform="matrix(1,0,0,1,157.442,88.372)"><g id="i6" fill="#31e9f4"><path fill-rule="evenodd" d="M-1.764,-8.316C-9.052,-7.482,-9.333,2.922,-8.323,4.701C-6.24,8.37,7.56,5.109,8.338,2.931C9.334,0.142,5.847,-8.369,-0.839,-8.37C-1.141,-8.37,-1.449,-8.352,-1.764,-8.316Z" /></g></g><g id="i21" transform="matrix(1,0,0,1,119.231,88.372)"><g id="i6" fill="#31e9f4"><path fill-rule="evenodd" d="M-8.337,2.931C-7.559,5.109,6.242,8.37,8.325,4.701C9.334,2.922,9.054,-7.482,1.766,-8.316C1.451,-8.352,1.144,-8.37,0.842,-8.37C-5.846,-8.369,-9.334,0.142,-8.337,2.931Z" /></g></g><g id="i22" transform="matrix(1,0,0,1,139.695,102.549)"><g id="i6" fill="#2f95cd"><path fill-rule="evenodd" d="" /></g><path d="M-15.984,-2.708C-15.984,-2.708,-12.049,1.355,-0.896,1.355C10.257,1.355,15.983,-3.333,15.983,-3.333C15.983,-3.333,11.067,3.333,-0.896,3.333C-12.86,3.333,-15.984,-2.708,-15.984,-2.708Z" fill="#2f95cd" /></g><g id="i23" transform="matrix(1,0,0,1,83.596,108.582)"><g id="i6" fill="#b99aeb"><path fill-rule="evenodd" d="M-9.763,-1.324C-16.218,9.819,-13.616,15.999,-13.616,15.999C-5.962,21.215,16.218,16.876,16.218,16.876C16.218,16.876,15.281,13.752,15.281,13.752C15.281,13.752,-10.829,18.282,-11.741,8.924C-12.834,-2.291,6.062,-12.583,6.062,-12.583C8.714,-18.612,4.67,-21.215,4.67,-21.215C4.67,-21.215,-3.307,-12.465,-9.763,-1.324Z" /></g></g><g id="i24" transform="matrix(1,0,0,1,104.258,122.703)"><g id="i6" fill="#ed1687"><path fill-rule="evenodd" d="M-8.686,-1.237C-11.065,1.454,-6.016,4.399,-1.865,4.851C2.793,5.358,11.065,3.515,10.566,-1.176C10.296,-3.704,6.346,-5.357,1.888,-5.357C-1.927,-5.358,-6.114,-4.147,-8.686,-1.237Z" /></g></g><g id="i25" transform="matrix(1,0,0,1,500,200)"><path fill="#4273c6" fill-rule="evenodd" d="M-382.369,-81.455C-383.199,-78.326,-376.653,-75.196,-360.555,-75.984C-341.093,-76.937,-336.96,-81.015,-337.917,-82.144C-338.491,-82.822,-344.321,-79.15,-360.305,-82.654C-370.861,-84.968,-381.495,-84.747,-382.369,-81.455Z" /></g><g id="i26" transform="matrix(1,0,0,1,182.377,98.202)"><g id="i6" fill="#808080"><path fill-rule="evenodd" d="M0.235,0.708C0.235,0.708,-0.235,-0.709,-0.235,-0.709C-0.144,-0.437,0.029,0.049,0.235,0.708ZM-0.235,0.708C-0.235,0.708,0.235,0.708,0.235,0.708C0.235,0.708,0.235,-0.71,0.235,-0.71C0.235,-0.71,-0.235,-0.71,-0.235,-0.71C-0.235,-0.71,-0.235,0.708,-0.235,0.708Z" /></g><path d="M-0.235,0.709C-0.235,0.709,-0.235,-0.708,-0.235,-0.708C-0.235,-0.708,0.235,-0.708,0.235,-0.708C0.235,-0.708,0.235,0.709,0.235,0.709C0.235,0.709,-0.235,0.709,-0.235,0.709Z" fill="#808080" /></g><g id="i27" transform="matrix(1,0,0,1,153.577,66.648)"><g id="i6" fill="#ffffff"><path fill-rule="evenodd" d="" /></g><path d="M-4.884,-2.783C-6.267,-2.461,5.33,3.673,5.799,2.944C6.268,2.215,-1.059,-3.673,-4.884,-2.783Z" fill="#ffffff" /></g><g id="i28" transform="matrix(1,0,0,1,172.843,68.707)"><g id="i6" fill="#ffffff"><path fill-rule="evenodd" d="" /></g><path d="M-1.934,-0.257C-3.09,0.367,-2.997,1.614,-0.604,1.301C1.788,0.989,3.09,-0.885,2.83,-1.25C2.569,-1.614,-0.637,-0.957,-1.934,-0.257Z" fill="#ffffff" /></g><g id="i29" transform="matrix(1,0,0,1,104.346,120.271)"><g id="i6" fill="#ec55ce"><path fill-rule="evenodd" d="M-8.46,1.689C-8.601,2.457,8.026,2.641,8.417,-0.298C8.601,-1.685,5.095,-2.641,1.227,-2.641C-3.1,-2.641,-7.883,-1.444,-8.46,1.689Z" /></g></g><g id="i30" transform="matrix(1,0,0,1,102.969,101.503)"><g id="i6" fill="#2860b5"><path fill-rule="evenodd" d="M-2.994,8.75C-2.994,8.75,-3.67,4.214,-2.873,-1.877C-2.075,-7.967,-0.439,-11.901,0.535,-11.349C1.51,-10.796,1.359,-4.832,1.934,1.046C2.382,5.619,3.261,9.912,3.261,9.912C3.261,9.912,-0.946,13.936,-2.994,8.75Z" /></g></g><g id="i31" transform="matrix(1,0,0,1,500,200)"><path fill="#7cf0fb" fill-rule="evenodd" d="M-316.047,-126.57C-316.047,-126.57,-318.25,-129.3,-321.253,-128.574C-324.256,-127.848,-324.456,-118.388,-322.659,-118.153C-320.863,-117.919,-320.101,-123.386,-318.725,-124.245C-317.349,-125.104,-314.942,-124.771,-314.942,-124.771C-314.942,-124.771,-316.047,-126.57,-316.047,-126.57Z" /></g><g id="i32" transform="matrix(1,0,0,1,96.045,75.211)"><g id="i6" fill="#7cf0fb"><path fill-rule="evenodd" d="M-4.885,1.505C-4.885,1.505,-3.726,0.191,-1.123,0.617C1.48,1.043,2.981,6.385,4.314,5.849C5.646,5.312,4.668,-3.343,1.148,-5.888C1.148,-5.888,-3.39,-2.014,-4.885,1.505Z" /></g></g><g id="i6" transform="matrix(1,0,0,1,83.297,95.229)"><g id="i6" fill="#dacff7"><path fill-rule="evenodd" d="M-4.319,5.173C-3.759,5.91,4.88,-4.841,4.328,-5.91C4.328,-5.91,-4.88,4.434,-4.319,5.173Z" /></g></g></g></g></g></g></g></g></g><g id="i3"><g transform="translate(983.73,1265.851)"><animateTransform repeatCount="indefinite" type="translate" attributeName="transform" dur="3.017s" begin="0s" calcMode="spline" values="983.73 1265.851; 987.73 1105.851; 983.73 1265.851; 983.73 1265.851" keyTimes="0; 0.497238; 0.994475; 1" keySplines="0.217 0 0.282 1; 0.333 0 0.667 1; 0 0 1 1" fill="freeze" /><g transform="scale(7.1,7.1) translate(-138.215,-179.134)"><g id="i33"><g transform="translate(112.329,161.13)"><g transform="rotate(10)"><animateTransform repeatCount="indefinite" type="rotate" attributeName="transform" dur="3.017s" begin="0s" calcMode="spline" values="10; -5; 10; 10" keyTimes="0; 0.419889; 0.98895; 1" keySplines="0.167 0.167 0.667 1; 0.333 0 0.667 1; 0 0 1 1" fill="freeze" /><g transform="scale(1,1) translate(-112.329,-161.13)"><g id="i29" transform="matrix(1,0,0,1,101.07,179.736)"><g id="i6" fill="#d8cdf7"><path fill-rule="evenodd" d="M6.368,-21.133C6.368,-21.133,6.352,-21.117,6.352,-21.117C6.352,-21.109,6.344,-21.1,6.336,-21.092C6.303,-21.05,6.269,-21.01,6.228,-20.96C6.212,-20.927,6.188,-20.895,6.154,-20.861C6.13,-20.828,6.105,-20.796,6.071,-20.754C6.022,-20.688,5.964,-20.622,5.923,-20.556C5.907,-20.532,5.89,-20.507,5.865,-20.482C1.818,-15.272,-2.881,-8.199,-6.565,-0.599C-13.902,14.528,-15.313,27.883,-15.313,27.883C-15.313,27.883,-14.059,28.287,-12.138,28.567C-8.973,29.028,-4.002,29.161,0.153,26.63C0.153,26.63,0.161,26.622,0.161,26.622C0.367,26.16,7.169,11.487,11.695,-0.17C14.431,-7.21,15.272,-15.924,15.296,-21.95C15.313,-26.047,14.942,-28.899,14.522,-29.13C14.483,-29.151,14.436,-29.161,14.382,-29.161C13.449,-29.16,10.255,-26.063,6.368,-21.133Z" /></g></g><g id="i31" transform="matrix(1,0,0,1,101.062,183.044)"><g id="i6" fill="#c3b4ec"><path fill-rule="evenodd" d="M15.304,-25.258C15.28,-19.231,14.439,-10.519,11.702,-3.479C7.176,8.178,0.375,22.852,0.169,23.313C0.169,23.313,0.161,23.322,0.161,23.322C0.161,23.322,-12.13,25.258,-12.13,25.258C-14.051,24.977,-15.304,24.575,-15.304,24.575C-15.304,24.575,-13.895,11.219,-6.558,-3.908C-2.873,-11.508,1.826,-18.58,5.874,-23.79C3.557,-20.732,-6.137,-7.419,-8.742,3.892C-11.71,16.76,0.26,11.806,5.156,3.892C10.045,-4.022,15.156,-25.258,15.156,-25.258C15.156,-25.258,15.304,-25.258,15.304,-25.258Z" /></g></g><g id="i32" transform="matrix(1,0,0,1,106.095,172.524)"><g id="i6" fill="#ffffff"><path fill-rule="evenodd" d="" /></g><path d="M-3.105,5.831C-4.08,5.465,0.956,-5.936,2.518,-6.04C4.08,-6.144,-2.272,6.143,-3.105,5.831Z" fill="#ffffff" /></g><g id="i6" transform="matrix(1,0,0,1,102.167,180.543)"><g id="i6" fill="#ffffff"><path fill-rule="evenodd" d="" /></g><path d="M0.313,-0.972C-0.456,-1.379,-1.183,0.754,-0.48,1.066C0.223,1.379,1.183,-0.511,0.313,-0.972Z" fill="#ffffff" /></g><g id="i30" transform="matrix(1,0,0,1,94.014,205.393)"><g id="i6" fill="#977ade"><path fill-rule="evenodd" d="M-8.194,1.704C0.149,6.079,7.205,0.973,7.205,0.973C7.205,0.973,8.194,-4.832,2.676,-5.978C2.34,-6.048,2.004,-6.08,1.67,-6.08C-3.475,-6.08,-8.194,1.704,-8.194,1.704Z" /></g></g></g></g></g></g></g></g></g><g id="i3"><g transform="translate(983.73,1265.851)"><animateTransform repeatCount="indefinite" type="translate" attributeName="transform" dur="3.017s" begin="0s" calcMode="spline" values="983.73 1265.851; 987.73 1105.851; 983.73 1265.851; 983.73 1265.851" keyTimes="0; 0.497238; 0.994475; 1" keySplines="0.217 0 0.282 1; 0.333 0 0.667 1; 0 0 1 1" fill="freeze" /><g transform="scale(7.1,7.1) translate(-138.215,-179.134)"><g id="i33"><g transform="translate(112.329,161.13)"><g transform="rotate(10)"><animateTransform repeatCount="indefinite" type="rotate" attributeName="transform" dur="3.017s" begin="0s" calcMode="spline" values="10; -5; 10; 10" keyTimes="0; 0.419889; 0.98895; 1" keySplines="0.167 0.167 0.667 1; 0.333 0 0.667 1; 0 0 1 1" fill="freeze" /><g transform="scale(1,1) translate(-112.329,-161.13)"><g id="i34"><g transform="translate(93.767,205.496)"><g transform="rotate(0)"><animateTransform repeatCount="indefinite" type="rotate" attributeName="transform" dur="3.017s" begin="0s" calcMode="spline" values="0; -9; 0; 0" keyTimes="0; 0.419889; 0.823204; 1" keySplines="0.167 0.167 0.667 1; 0.333 0 0.833 0.833; 0 0 1 1" fill="freeze" /><g transform="scale(1,1) translate(-93.767,-205.496)"><g id="i29" transform="matrix(1,0,0,1,93.42,218.8)"><g id="i6" fill="#dbd0f7"><path fill-rule="evenodd" d="M-6.814,-12.115C-8.11,-9.716,-8.783,4.106,-5.519,15.528C-5.519,15.528,-0.911,16.776,2.544,15.528C6,14.28,8.399,4.202,8.59,-3.381C8.782,-10.964,6.191,-15.955,1.488,-16.723C1.267,-16.759,1.038,-16.776,0.803,-16.776C-1.993,-16.776,-5.618,-14.329,-6.814,-12.115Z" /></g></g><g id="i30" transform="matrix(1,0,0,1,96.479,220.064)"><g id="i6" fill="#b79aeb"><path fill-rule="evenodd" d="M-1.997,14.648C2.472,13.783,4.091,8.985,5.147,-0.421C6.204,-9.828,3.359,-14.649,3.359,-14.649C-6.204,-9.68,-1.997,14.648,-1.997,14.648Z" /></g></g><g id="i31" transform="matrix(1,0,0,1,97.345,219.979)"><g id="i6" fill="#836fd7"><path fill-rule="evenodd" d="M-3.552,1.233C-3.552,1.233,-1.094,4.826,0.586,5.412C2.266,5.999,3.577,5.38,3.577,5.38C3.577,5.38,-2.629,-5.664,-2.629,-5.664C-2.629,-5.664,-3.755,-1.277,-3.552,1.233Z" /></g></g><g id="i32" transform="matrix(1,0,0,1,99.323,216.434)"><g id="i6" fill="#dfd3f7"><path fill-rule="evenodd" d="M-4.607,-2.118C-3.936,2.776,-1.44,7.721,-1.44,7.721C1.536,10.504,3.648,7.721,3.648,7.721C4.607,-6.773,0.825,-10.504,0.825,-10.504C-3.244,-8.858,-4.607,-2.118,-4.607,-2.118Z" /></g></g><g id="i6" transform="matrix(1,0,0,1,97.432,214.999)"><g id="i6" fill="#ffffff"><path fill-rule="evenodd" d="" /></g><path d="M-0.389,-3.059C-1.772,-3.059,0.331,3.06,1.051,2.917C1.771,2.772,0.763,-3.059,-0.389,-3.059Z" fill="#ffffff" /></g></g></g></g></g></g></g></g></g></g></g></g><g id="i3"><g transform="translate(983.73,1265.851)"><animateTransform repeatCount="indefinite" type="translate" attributeName="transform" dur="3.017s" begin="0s" calcMode="spline" values="983.73 1265.851; 987.73 1105.851; 983.73 1265.851; 983.73 1265.851" keyTimes="0; 0.497238; 0.994475; 1" keySplines="0.217 0 0.282 1; 0.333 0 0.667 1; 0 0 1 1" fill="freeze" /><g transform="scale(7.1,7.1) translate(-138.215,-179.134)"><g id="i35"><g transform="translate(151.022,209.978)"><g transform="rotate(0)"><animateTransform repeatCount="indefinite" type="rotate" attributeName="transform" dur="3.017s" begin="0s" calcMode="spline" values="0; 16; 0; 0" keyTimes="0; 0.41989; 0.81768; 1" keySplines="0.167 0.167 0.667 1; 0.333 0 0.833 0.833; 0 0 1 1" fill="freeze" /><g transform="scale(1,1) translate(-151.022,-209.978)"><g id="i30" transform="matrix(1,0,0,1,154.476,224.63)"><g id="i6" fill="#dcd0f7"><path fill-rule="evenodd" d="M-11.804,-7.275C-11.953,-7.069,-12.011,-6.64,-11.986,-6.038C-11.795,-1.183,-6.404,15.09,-1.632,20.449C-1.632,20.449,-1.632,20.456,-1.632,20.456C-0.865,21.313,-0.114,21.89,0.594,22.096C0.8,22.163,1.006,22.196,1.204,22.188C1.963,22.172,2.729,21.387,3.479,20.036C6.628,14.405,9.554,-1.075,10.973,-11.618C11.064,-12.311,11.155,-12.978,11.228,-13.622C11.797,-18.313,12.011,-21.669,11.723,-22.072C11.662,-22.156,11.543,-22.195,11.373,-22.195C8.48,-22.194,-9.235,-10.763,-11.804,-7.275Z" /></g></g><g id="i31" transform="matrix(1,0,0,1,154.043,211.313)"><g id="i6" fill="#aa92ed"><path fill-rule="evenodd" d="M-11.552,7.275C-12.154,8.753,8.721,5.362,12.154,-8.753C12.154,-8.753,-5.894,-6.641,-11.552,7.275Z" /></g></g><g id="i32" transform="matrix(1,0,0,1,154.402,227.107)"><g id="i6" fill="#ffffff"><path fill-rule="evenodd" d="" /></g><path d="M-0.46,-3.605C-1.312,-3.342,-1.51,3.458,-0.089,3.835C1.331,4.211,1.51,-4.211,-0.46,-3.605Z" fill="#ffffff" /></g><g id="i6" transform="matrix(1,0,0,1,500,200)"><path fill="#c5b8ee" fill-rule="evenodd" d="M-334.295,11.007C-334.295,11.007,-345.713,14.387,-348.351,19.803C-350.989,25.211,-350,38.071,-347.156,45.078C-351.929,39.72,-357.32,23.446,-357.51,18.591C-357.534,17.989,-357.477,17.561,-357.328,17.354C-354.608,13.661,-334.897,1.057,-333.801,2.558C-333.512,2.961,-333.727,6.316,-334.295,11.007Z" /></g></g></g></g></g></g></g></g><g id="i3"><g transform="translate(983.73,1265.851)"><animateTransform repeatCount="indefinite" type="translate" attributeName="transform" dur="3.017s" begin="0s" calcMode="spline" values="983.73 1265.851; 987.73 1105.851; 983.73 1265.851; 983.73 1265.851" keyTimes="0; 0.497238; 0.994475; 1" keySplines="0.217 0 0.282 1; 0.333 0 0.667 1; 0 0 1 1" fill="freeze" /><g transform="scale(7.1,7.1) translate(-138.215,-179.134)"><g id="i36"><g transform="translate(117.306,210.078)"><g transform="rotate(0)"><animateTransform repeatCount="indefinite" type="rotate" attributeName="transform" dur="3.017s" begin="0s" calcMode="spline" values="0; -15; 0; 0" keyTimes="0; 0.41989; 0.81768; 1" keySplines="0.167 0.167 0.667 1; 0.333 0 0.833 0.833; 0 0 1 1" fill="freeze" /><g transform="scale(1,1) translate(-117.306,-210.078)"><g id="i31" transform="matrix(1,0,0,1,122.339,224.158)"><g id="i6" fill="#d3c9f7"><path fill-rule="evenodd" d="M-11.611,-18.732C-11.958,-18.229,-11.57,-15.121,-10.713,-10.926C-9.138,-3.226,-5.956,8.16,-2.724,13.947C-1.662,15.851,-0.589,17.145,0.434,17.507C5.165,19.198,10.442,3.165,11.628,-3.777C11.909,-5.393,11.958,-6.514,11.736,-6.803C10.664,-8.157,-5.58,-19.199,-10.432,-19.199C-10.988,-19.199,-11.394,-19.053,-11.611,-18.732Z" /></g></g><g id="i6" transform="matrix(1,0,0,1,500,200)"><path fill="#c5b8ee" fill-rule="evenodd" d="M-381.367,17.61C-382.38,18.863,-381.127,35.104,-377.229,41.665C-378.25,41.303,-379.322,40.008,-380.386,38.104C-381.021,35.26,-381.96,31.039,-382.851,26.826C-383.988,21.402,-386.89,15.838,-388.374,13.232C-389.231,9.037,-389.619,5.929,-389.272,5.426C-387.162,2.302,-367.122,15.846,-365.926,17.354C-365.704,17.644,-365.753,18.765,-366.034,20.38C-366.034,20.38,-380.353,16.365,-381.367,17.61Z" /></g><g id="i32" transform="matrix(1,0,0,1,121.358,213.147)"><g id="i6" fill="#958aef"><path fill-rule="evenodd" d="M-10.631,-7.717C-12.849,-4.819,5.227,8.301,12.849,4.874C12.849,4.874,-3.602,-8.301,-9.167,-8.302C-9.82,-8.302,-10.322,-8.121,-10.631,-7.717Z" /></g></g></g></g></g></g></g></g></g><g id="i3"><g transform="translate(983.73,1265.851)"><animateTransform repeatCount="indefinite" type="translate" attributeName="transform" dur="3.017s" begin="0s" calcMode="spline" values="983.73 1265.851; 987.73 1105.851; 983.73 1265.851; 983.73 1265.851" keyTimes="0; 0.497238; 0.994475; 1" keySplines="0.217 0 0.282 1; 0.333 0 0.667 1; 0 0 1 1" fill="freeze" /><g transform="scale(7.1,7.1) translate(-138.215,-179.134)"><g id="i37" transform="matrix(1,0,0,1,137.964,179.133)"><g id="i6" fill="#dfd4f7"><path fill-rule="evenodd" d="M-19.215,-27.068C-19.215,-27.068,-19.215,-27.061,-19.223,-27.053C-20.097,-25.741,-20.888,-24.339,-21.598,-22.872C-21.598,-22.872,-21.606,-22.855,-21.606,-22.855C-22.389,-21.231,-23.067,-19.525,-23.626,-17.753C-27.377,-5.882,-28.465,13.177,-25.654,23.482C-22.842,33.794,-12.2,38.477,0.363,38.477C14.798,38.477,24.864,30.983,26.767,19.738C28.466,9.698,27.913,-2.065,25.317,-12.848C25.309,-12.889,25.3,-12.921,25.3,-12.947C24.476,-16.392,23.437,-19.731,22.201,-22.88C21.129,-25.617,19.628,-28.189,17.715,-30.423C13.602,-35.229,7.56,-38.477,-0.338,-38.477C-7.921,-38.477,-14.632,-33.967,-19.215,-27.068Z" /></g></g><g id="i25" transform="matrix(1,0,0,1,500,200)"><path fill="#9080ec" fill-rule="evenodd" d="M-336.053,-30.706C-336.053,-30.706,-338.226,-43.157,-345.126,-52.185C-345.126,-52.185,-343.895,-38.829,-336.053,-30.706Z" /></g><g id="i26" transform="matrix(1,0,0,1,138.215,186.936)"><g id="i6" fill="#bfb0eb"><path fill-rule="evenodd" d="M26.516,11.937C24.612,23.181,14.547,30.674,0.113,30.674C-12.451,30.674,-23.094,25.992,-25.905,15.679C-28.716,5.375,-27.629,-13.685,-23.878,-25.556C-23.317,-27.328,-22.64,-29.034,-21.857,-30.658C-21.857,-30.658,-21.85,-30.675,-21.85,-30.675C-21.85,-30.675,-29.449,-5.474,-23.374,10.576C-17.298,26.627,11.01,26.289,20.589,15.622C29.706,5.474,25.494,-18.367,25.066,-20.65C27.662,-9.868,28.214,1.896,26.516,11.937Z" /></g></g><g id="i27" transform="matrix(1,0,0,1,500,200)"><path fill="#9f8cef" fill-rule="evenodd" d="M-387.149,-7.799C-389.159,6.314,-377.361,16.363,-361.81,16.363C-346.26,16.363,-337.583,7.096,-337.375,-4.775C-337.167,-16.646,-344.958,-30.481,-359.451,-31.849C-360.206,-31.92,-360.954,-31.955,-361.699,-31.955C-374.221,-31.954,-385.121,-22.042,-387.149,-7.799Z" /></g><g id="i28" transform="matrix(1,0,0,1,136.972,193.453)"><g id="i6" fill="url(#i1)"><path fill-rule="evenodd" d="M-23.986,-0.003C-25.996,14.11,-14.198,24.159,1.353,24.159C16.904,24.159,25.58,14.892,25.788,3.021C25.996,-8.849,18.206,-22.685,3.712,-24.053C2.958,-24.124,2.208,-24.159,1.464,-24.159C-11.059,-24.159,-21.958,-14.246,-23.986,-0.003Z" /></g></g><g id="i29" transform="matrix(1,0,0,1,137.156,148.134)"><g id="i6" fill="#aca1df"><path fill-rule="evenodd" d="M18.523,0.576C15.448,5.399,-1.476,8.206,-11.258,7.313C-19.774,6.535,-18.481,4.236,-18.415,3.948C-18.407,3.94,-18.408,3.931,-18.408,3.931C-13.824,-2.968,-7.114,-7.478,0.47,-7.478C8.368,-7.478,14.41,-4.23,18.523,0.576Z" /></g></g><g id="i30" transform="matrix(1,0,0,1,150.766,161.197)"><g id="i6" fill="#ffffff"><path fill-rule="evenodd" d="" /></g><path d="M-1.102,-4.128C-1.888,-3.868,-1.926,2.477,-1.102,3.499C-0.278,4.521,1.044,4.206,1.485,2.713C1.925,1.219,0.088,-4.521,-1.102,-4.128Z" fill="#ffffff" /></g><g id="i31" transform="matrix(1,0,0,1,151.445,167.722)"><g id="i6" fill="#ffffff"><path fill-rule="evenodd" d="" /></g><path d="M-0.327,-1.337C-0.983,-1.181,-1.058,0.393,-0.756,0.944C-0.452,1.494,0.688,1.376,0.873,0.708C1.058,0.039,0.334,-1.494,-0.327,-1.337Z" fill="#ffffff" /></g><g id="i32" transform="matrix(1,0,0,1,500,200)" opacity="0.5"><path fill="#9bf4fc" fill-rule="evenodd" d="M-378.502,8.818C-378.502,8.818,-375.028,14.867,-362.092,14.917C-349.155,14.968,-343.895,7.264,-343.895,7.264C-343.895,7.264,-349.863,11.154,-358.398,8.818C-366.934,6.482,-375.375,5.17,-378.502,8.818Z" /></g><g id="i6" transform="matrix(1,0,0,1,500,200)"><path fill="#9bf4fc" fill-rule="evenodd" d="M-381.874,-16.125C-379.319,-12.049,-368.805,-14.22,-356.958,-13.064C-345.11,-11.908,-343.089,-8.054,-340.59,-8.834C-338.09,-9.616,-342.039,-27.451,-359.74,-28.661C-377.442,-29.871,-382.51,-17.14,-381.874,-16.125Z" /></g></g></g></g><g id="i3"><g transform="translate(983.73,1265.851)"><animateTransform repeatCount="indefinite" type="translate" attributeName="transform" dur="3.017s" begin="0s" calcMode="spline" values="983.73 1265.851; 987.73 1105.851; 983.73 1265.851; 983.73 1265.851" keyTimes="0; 0.497238; 0.994475; 1" keySplines="0.217 0 0.282 1; 0.333 0 0.667 1; 0 0 1 1" fill="freeze" /><g transform="scale(7.1,7.1) translate(-138.215,-179.134)"><g id="i38"><g transform="translate(162.796,159.626)"><animateTransform repeatCount="indefinite" type="translate" attributeName="transform" dur="3.017s" begin="0s" calcMode="spline" values="162.796 159.626; 161.669 155.119; 162.796 159.626; 162.796 159.626" keyTimes="0; 0.41989; 0.81768; 1" keySplines="0.167 0.167 0.667 1; 0.333 0 0.667 1; 0 0 1 1" fill="freeze" /><g transform="rotate(25)"><animateTransform repeatCount="indefinite" type="rotate" attributeName="transform" dur="3.017s" begin="0s" calcMode="spline" values="25; 0; 25; 25" keyTimes="0; 0.41989; 0.81768; 1" keySplines="0.167 0.167 0.331 1; 0.333 0 0.667 1; 0 0 1 1" fill="freeze" /><g transform="scale(1,1) translate(-161.669,-155.119)"><g id="i31" transform="matrix(1,0,0,1,176.718,141.698)"><g id="i6" fill="#d8cdf7"><path fill-rule="evenodd" d="M-20.205,3.286C-20.346,3.352,-20.477,3.451,-20.576,3.574C-20.576,3.574,-20.584,3.583,-20.584,3.583C-22.637,6.039,-17.443,18.636,-11.483,22.493C-11.483,22.493,10.198,14.167,22.489,-10.201C22.489,-10.201,22.637,-14.289,20.93,-17.76C19.768,-20.151,17.724,-22.236,14.154,-22.492C14.154,-22.492,6.24,-9.368,-20.205,3.286Z" /></g></g><g id="i6" transform="matrix(1,0,0,1,500,200)"><path fill="#c3b4ec" fill-rule="evenodd" d="M-300.793,-68.502C-313.084,-44.134,-334.766,-35.809,-334.766,-35.809C-340.726,-39.667,-345.919,-52.263,-343.866,-54.719C-343.866,-54.719,-343.858,-54.728,-343.858,-54.728C-343.743,-54.834,-343.619,-54.925,-343.487,-55.016C-343.487,-55.016,-339.618,-40.809,-328.284,-44.75C-314.836,-49.426,-309.334,-72.797,-309.334,-72.797C-309.334,-72.797,-309.334,-79.648,-309.334,-79.648C-309.334,-79.648,-302.352,-76.062,-302.352,-76.062C-300.645,-72.591,-300.793,-68.502,-300.793,-68.502Z" /></g><g id="i32" transform="matrix(1,0,0,1,193.94,128.166)"><g id="i6" fill="#a38ee9"><path fill-rule="evenodd" d="M-3.064,-8.956C-5.266,-8.369,-5.043,6.247,-2.232,7.705C0.58,9.162,5.266,3.331,5.266,3.331C5.266,3.331,4.812,-9.161,-1.579,-9.162C-2.043,-9.163,-2.536,-9.097,-3.064,-8.956Z" /></g></g></g></g></g></g></g></g></g><g id="i3"><g transform="translate(983.73,1265.851)"><animateTransform repeatCount="indefinite" type="translate" attributeName="transform" dur="3.017s" begin="0s" calcMode="spline" values="983.73 1265.851; 987.73 1105.851; 983.73 1265.851; 983.73 1265.851" keyTimes="0; 0.497238; 0.994475; 1" keySplines="0.217 0 0.282 1; 0.333 0 0.667 1; 0 0 1 1" fill="freeze" /><g transform="scale(7.1,7.1) translate(-138.215,-179.134)"><g id="i38"><g transform="translate(162.796,159.626)"><animateTransform repeatCount="indefinite" type="translate" attributeName="transform" dur="3.017s" begin="0s" calcMode="spline" values="162.796 159.626; 161.669 155.119; 162.796 159.626; 162.796 159.626" keyTimes="0; 0.41989; 0.81768; 1" keySplines="0.167 0.167 0.667 1; 0.333 0 0.667 1; 0 0 1 1" fill="freeze" /><g transform="rotate(25)"><animateTransform repeatCount="indefinite" type="rotate" attributeName="transform" dur="3.017s" begin="0s" calcMode="spline" values="25; 0; 25; 25" keyTimes="0; 0.41989; 0.81768; 1" keySplines="0.167 0.167 0.331 1; 0.333 0 0.667 1; 0 0 1 1" fill="freeze" /><g transform="scale(1,1) translate(-161.669,-155.119)"><g id="i39"><g transform="translate(195.262,126.787)"><g transform="rotate(0)"><animateTransform repeatCount="indefinite" type="rotate" attributeName="transform" dur="3.017s" begin="0s" calcMode="spline" values="0; 0; -10; 0; 0" keyTimes="0; 0.066298; 0.19337; 0.453039; 1" keySplines="0 0 1 1; 0.167 0.167 0.667 1; 0.333 0 0.833 0.833; 0 0 1 1" fill="freeze" /><g transform="scale(1,1) translate(-195.262,-126.787)"><g id="i28" transform="matrix(1,0,0,1,200.659,115.518)"><g id="i6" fill="#d3c8f7"><path fill-rule="evenodd" d="M-4.529,-13.425C-4.529,-13.425,-10.361,1.257,-10.569,7.817C-10.569,7.817,-10.673,15.523,-6.3,16.773C-1.926,18.022,3.54,9.852,5.571,6.465C7.601,3.079,10.674,-12.177,7.758,-15.821C6.576,-17.297,4.95,-18.021,3.185,-18.021C0.593,-18.021,-2.299,-16.46,-4.529,-13.425Z" /></g></g><g id="i29" transform="matrix(1,0,0,1,197.082,109.271)"><g id="i6" fill="#a48fee"><path fill-rule="evenodd" d="M-0.952,-7.179C-5.43,-2.285,-6.755,11.778,-6.755,11.778C-6.755,11.778,-1.681,7.92,-0.536,1.985C0.609,-3.951,6.756,-11.774,6.756,-11.774C6.756,-11.774,6.718,-11.778,6.644,-11.778C6.039,-11.778,3.038,-11.541,-0.952,-7.179Z" /></g></g><g id="i30" transform="matrix(1,0,0,1,500,200)"><path fill="#7b65d0" fill-rule="evenodd" d="M-304.671,-96.893C-304.671,-96.893,-300.794,-95.43,-300.794,-95.43C-300.794,-95.43,-302.51,-92.537,-303.211,-89.776C-303.911,-87.016,-306.54,-83.248,-306.54,-83.248C-306.54,-83.248,-304.671,-96.893,-304.671,-96.893Z" /></g><g id="i32" transform="matrix(1,0,0,1,201.388,116.752)"><g id="i6" fill="#b297ec"><path fill-rule="evenodd" d="M-4.842,-5.496C-4.842,-5.496,-2.237,3.092,4.036,6.529C4.036,6.529,4.842,5.231,4.842,5.231C4.842,5.231,-1.544,1.864,-4.599,-6.529C-4.599,-6.529,-4.842,-5.496,-4.842,-5.496Z" /></g></g></g></g></g></g></g></g></g></g></g></g></g><g id="i40"><g transform="translate(1558.678,686.658)"><animateTransform repeatCount="indefinite" type="translate" attributeName="transform" dur="3.017s" begin="0s" calcMode="spline" values="1558.678 686.658; 1558.678 686.658; 1514.678 250.658; 1514.678 250.658; 1558.678 686.658; 1558.678 686.658" keyTimes="0; 0.066298; 0.414365; 0.453039; 0.98895; 1" keySplines="0 0 1 1; 0.478 0.475 0.563 1; 0 0 1 1; 0.204 0 0.751 1; 0 0 1 1" fill="freeze" /><g transform="scale(7.1,7.1)"><animateTransform repeatCount="indefinite" type="scale" attributeName="transform" dur="3.017s" begin="0s" calcMode="spline" values="7.1 7.1; 7.1 7.1; 7.71 5.93; 7.1 7.1; 6.75 6.82; 7.1 7.1; 7.1 7.1" keyTimes="0; 0.066298; 0.325967; 0.513812; 0.767956; 0.983426; 1" keySplines="0 0 1 1; 0 0 1 1; 0 0 1 1; 0.167 0.167 0.667 1; 0.333 0 0.833 0.833; 0 0 1 1" fill="freeze" /><g transform="translate(-219.758,-66.572)"><g id="i29" transform="matrix(1,0,0,1,224.715,67.173)"><path fill="#d527ae" fill-rule="evenodd" d="M12.186,-21.063C12.186,-21.063,15.101,-19.813,15.101,-19.813C15.101,-19.813,12.186,12.83,12.186,12.83C12.186,12.83,9.686,13.948,9.686,13.948C9.686,13.948,-4.059,15.324,-4.059,15.324C-4.059,15.324,-5.1,21.063,-5.1,21.063C-5.1,21.063,-15.101,12.83,-15.101,12.83C-15.101,12.83,12.186,-21.063,12.186,-21.063Z" /></g><g id="i30" transform="matrix(1,0,0,1,218.251,66.572)"><path fill="#f763c3" fill-rule="evenodd" d="M-18.551,-20.462C-18.551,-20.462,-18.649,3.081,-16.863,14.482C-16.863,14.482,1.364,21.664,1.364,21.664C1.364,21.664,-1.552,16.556,-1.552,16.556C-1.552,16.556,16.15,14.549,16.15,14.549C16.15,14.549,18.025,-11.923,18.65,-20.462C18.65,-20.462,12.447,-21.664,1.426,-21.664C-4.086,-21.664,-10.801,-21.364,-18.551,-20.462Z" /></g><g id="i31" transform="matrix(1,0,0,1,213.997,64.09)"><path fill="#ffffff" d="M-0.918,-7.45C-0.988,-6.073,-1.047,-4.707,-1.096,-3.354C-1.144,-2.001,-1.179,-0.643,-1.2,0.72C-1.026,0.734,-0.85,0.741,-0.673,0.741C-0.673,0.741,-0.146,0.741,-0.146,0.741C0.077,0.741,0.304,0.738,0.538,0.731C0.77,0.724,1.005,0.714,1.242,0.699C1.256,0.393,1.263,0.092,1.263,-0.203C1.263,-0.203,1.263,-1.116,1.263,-1.116C1.263,-2.174,1.252,-3.227,1.231,-4.278C1.21,-5.328,1.176,-6.386,1.127,-7.45C1.127,-7.45,3.694,-7.45,3.694,-7.45C3.569,-5.773,3.473,-4.109,3.407,-2.457C3.341,-0.805,3.308,0.86,3.308,2.536C3.308,3.357,3.318,4.174,3.339,4.988C3.36,5.802,3.388,6.623,3.423,7.45C3.423,7.45,1.043,7.45,1.043,7.45C1.078,6.623,1.109,5.799,1.138,4.977C1.165,4.157,1.193,3.336,1.221,2.515C0.824,2.494,0.43,2.475,0.037,2.458C-0.356,2.44,-0.748,2.431,-1.137,2.431C-1.137,2.431,-1.221,2.431,-1.221,2.431C-1.221,2.431,-1.221,4.581,-1.221,4.581C-1.221,4.581,-1.221,6.021,-1.221,6.021C-1.221,6.494,-1.214,6.97,-1.2,7.45C-1.2,7.45,-3.589,7.45,-3.589,7.45C-3.555,6.449,-3.532,5.459,-3.522,4.482C-3.511,3.505,-3.506,2.522,-3.506,1.534C-3.506,-1.457,-3.568,-4.451,-3.694,-7.45C-3.694,-7.45,-0.918,-7.45,-0.918,-7.45Z" /></g><g id="i32" transform="matrix(1,0,0,1,220.862,64.059)"><path fill="#ffffff" d="M2.192,7.419C1.914,7.405,1.634,7.395,1.357,7.388C1.078,7.381,0.801,7.377,0.523,7.377C0.064,7.377,-0.396,7.386,-0.855,7.403C-1.314,7.42,-1.773,7.447,-2.232,7.481C-2.232,7.481,-2.211,5.238,-2.211,5.238C-2.051,5.259,-1.891,5.274,-1.731,5.285C-1.571,5.295,-1.412,5.308,-1.251,5.322C-1.209,4.243,-1.171,3.17,-1.132,2.103C-1.094,1.035,-1.074,-0.035,-1.074,-1.106C-1.074,-1.822,-1.084,-2.53,-1.105,-3.229C-1.126,-3.929,-1.147,-4.633,-1.168,-5.342C-1.349,-5.342,-1.533,-5.339,-1.721,-5.332C-1.909,-5.325,-2.101,-5.314,-2.296,-5.301C-2.296,-5.301,-2.274,-7.481,-2.274,-7.481C-1.738,-7.447,-1.203,-7.42,-0.667,-7.403C-0.131,-7.386,0.408,-7.377,0.95,-7.377C0.95,-7.377,1.535,-7.377,1.535,-7.377C1.73,-7.377,1.928,-7.384,2.13,-7.398C2.13,-7.398,2.067,-5.322,2.067,-5.322C1.907,-5.322,1.749,-5.325,1.592,-5.332C1.436,-5.339,1.277,-5.342,1.117,-5.342C1.02,-4.09,0.95,-2.847,0.909,-1.612C0.867,-0.377,0.846,0.866,0.846,2.118C0.846,3.211,0.867,4.299,0.909,5.384C1.131,5.384,1.359,5.381,1.592,5.374C1.825,5.367,2.06,5.356,2.296,5.342C2.296,5.342,2.192,7.419,2.192,7.419Z" /></g><g id="i6" transform="matrix(1,0,0,1,225.318,64.22)"><path fill="#ffffff" fill-rule="evenodd" d="M1.117,6.527C1.117,6.694,1.083,6.851,1.017,6.997C0.951,7.143,0.864,7.27,0.757,7.378C0.649,7.485,0.52,7.571,0.37,7.633C0.221,7.696,0.063,7.727,-0.104,7.727C-0.271,7.727,-0.426,7.696,-0.569,7.633C-0.712,7.571,-0.839,7.485,-0.949,7.378C-1.061,7.27,-1.148,7.143,-1.211,6.997C-1.273,6.851,-1.304,6.694,-1.304,6.527C-1.304,6.36,-1.273,6.206,-1.211,6.063C-1.148,5.92,-1.061,5.794,-0.949,5.682C-0.839,5.571,-0.712,5.484,-0.569,5.421C-0.426,5.359,-0.271,5.327,-0.104,5.327C0.063,5.327,0.221,5.359,0.37,5.421C0.52,5.484,0.649,5.571,0.757,5.682C0.864,5.794,0.951,5.92,1.017,6.063C1.083,6.206,1.117,6.36,1.117,6.527ZM1.304,-7.727C1.109,-5.8,0.956,-3.855,0.845,-1.893C0.734,0.068,0.668,1.999,0.647,3.898C0.647,3.898,-0.741,3.94,-0.741,3.94C-0.79,2.027,-0.854,0.086,-0.934,-1.883C-1.014,-3.851,-1.106,-5.792,-1.211,-7.705C-1.211,-7.705,1.304,-7.727,1.304,-7.727Z" /></g></g></g></g></g><g id="i3"><g transform="translate(983.73,1265.851)"><animateTransform repeatCount="indefinite" type="translate" attributeName="transform" dur="3.017s" begin="0s" calcMode="spline" values="983.73 1265.851; 987.73 1105.851; 983.73 1265.851; 983.73 1265.851" keyTimes="0; 0.497238; 0.994475; 1" keySplines="0.217 0 0.282 1; 0.333 0 0.667 1; 0 0 1 1" fill="freeze" /><g transform="scale(7.1,7.1) translate(-138.215,-179.134)"><g id="i38"><g transform="translate(162.796,159.626)"><animateTransform repeatCount="indefinite" type="translate" attributeName="transform" dur="3.017s" begin="0s" calcMode="spline" values="162.796 159.626; 161.669 155.119; 162.796 159.626; 162.796 159.626" keyTimes="0; 0.41989; 0.81768; 1" keySplines="0.167 0.167 0.667 1; 0.333 0 0.667 1; 0 0 1 1" fill="freeze" /><g transform="rotate(25)"><animateTransform repeatCount="indefinite" type="rotate" attributeName="transform" dur="3.017s" begin="0s" calcMode="spline" values="25; 0; 25; 25" keyTimes="0; 0.41989; 0.81768; 1" keySplines="0.167 0.167 0.331 1; 0.333 0 0.667 1; 0 0 1 1" fill="freeze" /><g transform="scale(1,1) translate(-161.669,-155.119)"><g id="i39"><g transform="translate(195.262,126.787)"><g transform="rotate(0)"><animateTransform repeatCount="indefinite" type="rotate" attributeName="transform" dur="3.017s" begin="0s" calcMode="spline" values="0; 0; -10; 0; 0" keyTimes="0; 0.066298; 0.19337; 0.453039; 1" keySplines="0 0 1 1; 0.167 0.167 0.667 1; 0.333 0 0.833 0.833; 0 0 1 1" fill="freeze" /><g transform="scale(1,1) translate(-195.262,-126.787)"><g transform="matrix(1,0,0,1,0,0)" id="i41"><g id="i31" transform="matrix(1,0,0,1,192.432,109.654)"><g id="i6" fill="#d6cbf7"><path fill-rule="evenodd" d="M-1.843,-9.436C-2.466,-8.656,-3.8,-4.229,-3.618,1.394C-3.436,7.016,-2.105,9.932,-2.105,9.932C2.401,8.578,3.801,-1.432,3.801,-1.432C3.801,-1.432,3.051,-7.613,2.01,-8.863C1.401,-9.593,0.402,-9.932,-0.449,-9.932C-1.054,-9.932,-1.583,-9.761,-1.843,-9.436Z" /></g></g><g id="i6" transform="matrix(1,0,0,1,192.227,107.118)"><g id="i6" fill="#ffffff"><path fill-rule="evenodd" d="" /></g><path d="M-0.258,-2.695C-0.887,-2.769,-0.676,2.768,0.105,2.535C0.887,2.303,0.627,-2.591,-0.258,-2.695Z" fill="#ffffff" /></g></g></g></g></g></g></g></g></g></g></g></g></g></g></defs><g transform="matrix(0.27,0,0,0.27,-20,-2)" id="i42"><g clip-path="url(#i0)"><g><g transform="translate(983.73,1265.851)"><animateTransform repeatCount="indefinite" type="translate" attributeName="transform" dur="3.017s" begin="0s" calcMode="spline" values="983.73 1265.851; 987.73 1105.851; 983.73 1265.851; 983.73 1265.851" keyTimes="0; 0.497238; 0.994475; 1" keySplines="0.217 0 0.282 1; 0.333 0 0.667 1; 0 0 1 1" fill="freeze" /><g transform="scale(7.1,7.1) translate(-138.215,-179.134)"><g><g transform="translate(139.381,137.647)"><g transform="rotate(0)"><animateTransform repeatCount="indefinite" type="rotate" attributeName="transform" dur="3.017s" begin="0s" calcMode="spline" values="0; -9; 0; 0" keyTimes="0; 0.41989; 0.723757; 1" keySplines="0.167 0.167 0.667 1; 0.333 0 0.667 1; 0 0 1 1" fill="freeze" /><g transform="scale(1,1) translate(-139.381,-137.647)"><g transform="matrix(1,0,0,1,101.929,83.129)"><g fill="#dbccf5"><path fill-rule="evenodd" d="M-8.126,-7.758C-10.834,0.677,-5.836,17.338,-5.836,17.338C-5.836,17.338,10.834,-11.004,10.834,-11.004C10.834,-11.004,4.58,-16.401,-3.075,-17.338C-3.075,-17.338,-5.419,-16.193,-8.126,-7.758Z" /></g></g><g transform="matrix(1,0,0,1,100.519,76.579)"><g fill="#a18def"><path fill-rule="evenodd" d="M-4.633,-6.583C-4.633,-6.583,2.568,10.788,2.568,10.788C2.568,10.788,4.385,8.909,4.385,8.909C4.633,-4.976,-1.665,-10.788,-1.665,-10.788C-3.406,-9.434,-4.633,-6.583,-4.633,-6.583Z" /></g></g><g transform="matrix(1,0,0,1,175.355,83.129)"><g fill="#dbccf5"><path fill-rule="evenodd" d="M-10.833,-11.004C-10.833,-11.004,5.837,17.338,5.837,17.338C5.837,17.338,10.833,0.677,8.126,-7.758C5.419,-16.193,3.074,-17.338,3.074,-17.338C-4.579,-16.401,-10.833,-11.004,-10.833,-11.004Z" /></g></g><g transform="matrix(1,0,0,1,176.922,75.214)"><g fill="#a18def"><path fill-rule="evenodd" d="M1.508,-9.423C1.508,-9.423,-4.686,-2.785,-4.686,7.914C-4.686,7.914,-2.291,9.425,-2.291,9.425C-2.291,9.425,4.686,-5.016,4.686,-5.016C4.686,-5.016,2.434,-9.425,1.545,-9.425C1.532,-9.425,1.52,-9.424,1.508,-9.423Z" /></g></g><g transform="matrix(1,0,0,1,181.973,85.091)"><g fill="#30edeb"><path fill-rule="evenodd" d="M-7.568,-1.181C-7.568,-1.181,1.897,17.034,1.897,17.034C1.897,17.034,9.216,9.909,6.404,-1.963C3.593,-13.833,-3.202,-17.035,-3.202,-17.035C-9.215,-10.319,-7.568,-1.181,-7.568,-1.181Z" /></g></g><g transform="matrix(1,0,0,1,95.313,85.091)"><g fill="#30edeb"><path fill-rule="evenodd" d="M-6.405,-1.963C-9.215,9.909,-1.898,17.034,-1.898,17.034C-1.898,17.034,7.568,-1.181,7.568,-1.181C7.568,-1.181,9.215,-10.319,3.202,-17.035C3.202,-17.035,-3.593,-13.833,-6.405,-1.963Z" /></g></g><g transform="matrix(1,0,0,1,138.505,107.546)"><g fill="#d9cef7"><path fill-rule="evenodd" d="M-43.439,-11.017C-48.805,3.286,-49.417,18.825,-43.844,29.163C-35.304,44.99,30.291,46.441,44.247,26.87C48.938,20.292,49.417,9.864,46.63,-1.092C41.124,-22.739,22.848,-46.44,-0.943,-46.44C-21.157,-46.44,-36.399,-29.787,-43.439,-11.017Z" /></g></g><g transform="matrix(1,0,0,1,141.549,97.509)"><g fill="#dfe3fb"><path fill-rule="evenodd" d="" /></g><path d="M-41.993,18.755C-38.869,32.084,18.787,33.535,32.948,21.456C47.11,9.377,26.717,-33.535,-4.522,-31.661C-33.094,-29.946,-47.11,-3.077,-41.993,18.755Z" fill="#dfe3fb" /></g><g transform="matrix(1,0,0,1,141.098,96.797)"><g fill="#0d4ca4"><path fill-rule="evenodd" d="M-4.371,-32.568C-32.942,-30.854,-46.958,-3.984,-41.841,17.848C-38.718,31.176,18.938,32.628,33.1,20.549C46.959,8.727,27.72,-32.623,-2.388,-32.628C-3.046,-32.628,-3.704,-32.608,-4.371,-32.568Z" /></g></g><g transform="matrix(1,0,0,1,138.801,122.679)"><g fill="#beaeeb"><path fill-rule="evenodd" d="M43.951,11.737C29.995,31.307,-35.6,29.856,-44.14,14.029C-49.713,3.691,-49.103,-11.848,-43.736,-26.151C-43.736,-26.159,-43.728,-26.159,-43.728,-26.159C-43.959,-25.318,-49.457,-5.27,-43.843,3.55C-38.106,12.57,-15.403,11.316,8.966,10.278C33.333,9.231,41.396,5.694,45.485,-1.181C48.708,-6.589,45.468,-18.526,43.943,-23.356C43.943,-23.356,46.334,-16.226,46.334,-16.226C49.12,-5.27,48.642,5.158,43.951,11.737Z" /></g></g><g transform="matrix(1,0,0,1,138.129,142.04)"><g fill="#8e7eeb"><path fill-rule="evenodd" d="M-27.516,-4.706C-31.729,-3.931,-34.408,-2.984,-34.565,-1.904C-34.821,-0.132,-33.073,1.591,-29.462,3.035C-29.462,3.035,-29.454,3.035,-29.454,3.035C-23.955,5.235,-14.129,6.769,-0.494,6.785C11.822,6.793,34.821,2.514,33.535,-1.904C33.469,-2.136,33.338,-2.357,33.148,-2.579C32.398,-3.453,30.708,-4.17,28.326,-4.755C28.285,-4.763,28.251,-4.772,28.211,-4.781C28.013,-4.829,27.806,-4.881,27.592,-4.93C26.594,-5.152,25.489,-5.349,24.303,-5.53C18.566,-6.4,10.79,-6.793,2.77,-6.793C-8.514,-6.793,-20.279,-6.016,-27.516,-4.706Z" /></g></g><g transform="matrix(1,0,0,1,137.529,140.161)"><g fill="#685ed8"><path fill-rule="evenodd" d="M33.979,-1.112C33.929,-0.98,33.855,-0.84,33.748,-0.7C32.413,1.188,26.996,3.619,26.996,3.619C26.996,3.619,6.181,-4.896,-10.693,-1.112C-27.568,2.672,-28.854,4.914,-28.854,4.914C-28.854,4.914,-28.862,4.914,-28.862,4.914C-32.473,3.471,-34.22,1.748,-33.965,-0.024C-33.808,-1.104,-31.129,-2.052,-26.917,-2.827C-14.535,-5.069,11.096,-5.745,24.904,-3.652C26.347,-3.396,27.657,-3.14,28.811,-2.901C28.852,-2.893,28.885,-2.885,28.926,-2.877C32.199,-2.168,34.136,-1.541,33.979,-1.112Z" /></g></g><g transform="matrix(1,0,0,1,138.167,139.052)"><g fill="#6642ab"><path fill-rule="evenodd" d="M-27.554,-1.718C-25.329,1.283,-15.734,3.772,0.061,3.797C8.874,3.805,24.331,1.142,27.554,-1.941C21.75,-3.234,12.432,-3.805,2.757,-3.805C-8.535,-3.805,-20.313,-3.028,-27.554,-1.718Z" /></g></g><g transform="matrix(1,0,0,1,500,200)"><path fill="#8d83d7" fill-rule="evenodd" d="M-405.339,-63.292C-405.339,-63.292,-402.569,-66.524,-397.135,-69.128C-391.7,-71.731,-386.704,-73.77,-385.933,-75.861C-385.161,-77.953,-400.839,-76.719,-400.839,-76.719C-400.839,-76.719,-408.644,-73.332,-408.644,-73.332C-408.644,-73.332,-407.42,-67.038,-405.339,-63.292Z" /></g><g transform="matrix(1,0,0,1,157.442,88.372)"><g fill="#31e9f4"><path fill-rule="evenodd" d="M-1.764,-8.316C-9.052,-7.482,-9.333,2.922,-8.323,4.701C-6.24,8.37,7.56,5.109,8.338,2.931C9.334,0.142,5.847,-8.369,-0.839,-8.37C-1.141,-8.37,-1.449,-8.352,-1.764,-8.316Z" /></g></g><g transform="matrix(1,0,0,1,119.231,88.372)"><g fill="#31e9f4"><path fill-rule="evenodd" d="M-8.337,2.931C-7.559,5.109,6.242,8.37,8.325,4.701C9.334,2.922,9.054,-7.482,1.766,-8.316C1.451,-8.352,1.144,-8.37,0.842,-8.37C-5.846,-8.369,-9.334,0.142,-8.337,2.931Z" /></g></g><g transform="matrix(1,0,0,1,139.695,102.549)"><g fill="#2f95cd"><path fill-rule="evenodd" d="" /></g><path d="M-15.984,-2.708C-15.984,-2.708,-12.049,1.355,-0.896,1.355C10.257,1.355,15.983,-3.333,15.983,-3.333C15.983,-3.333,11.067,3.333,-0.896,3.333C-12.86,3.333,-15.984,-2.708,-15.984,-2.708Z" fill="#2f95cd" /></g><g transform="matrix(1,0,0,1,83.596,108.582)"><g fill="#b99aeb"><path fill-rule="evenodd" d="M-9.763,-1.324C-16.218,9.819,-13.616,15.999,-13.616,15.999C-5.962,21.215,16.218,16.876,16.218,16.876C16.218,16.876,15.281,13.752,15.281,13.752C15.281,13.752,-10.829,18.282,-11.741,8.924C-12.834,-2.291,6.062,-12.583,6.062,-12.583C8.714,-18.612,4.67,-21.215,4.67,-21.215C4.67,-21.215,-3.307,-12.465,-9.763,-1.324Z" /></g></g><g transform="matrix(1,0,0,1,104.258,122.703)"><g fill="#ed1687"><path fill-rule="evenodd" d="M-8.686,-1.237C-11.065,1.454,-6.016,4.399,-1.865,4.851C2.793,5.358,11.065,3.515,10.566,-1.176C10.296,-3.704,6.346,-5.357,1.888,-5.357C-1.927,-5.358,-6.114,-4.147,-8.686,-1.237Z" /></g></g><g transform="matrix(1,0,0,1,500,200)"><path fill="#4273c6" fill-rule="evenodd" d="M-382.369,-81.455C-383.199,-78.326,-376.653,-75.196,-360.555,-75.984C-341.093,-76.937,-336.96,-81.015,-337.917,-82.144C-338.491,-82.822,-344.321,-79.15,-360.305,-82.654C-370.861,-84.968,-381.495,-84.747,-382.369,-81.455Z" /></g><g transform="matrix(1,0,0,1,182.377,98.202)"><g fill="#808080"><path fill-rule="evenodd" d="M0.235,0.708C0.235,0.708,-0.235,-0.709,-0.235,-0.709C-0.144,-0.437,0.029,0.049,0.235,0.708ZM-0.235,0.708C-0.235,0.708,0.235,0.708,0.235,0.708C0.235,0.708,0.235,-0.71,0.235,-0.71C0.235,-0.71,-0.235,-0.71,-0.235,-0.71C-0.235,-0.71,-0.235,0.708,-0.235,0.708Z" /></g><path d="M-0.235,0.709C-0.235,0.709,-0.235,-0.708,-0.235,-0.708C-0.235,-0.708,0.235,-0.708,0.235,-0.708C0.235,-0.708,0.235,0.709,0.235,0.709C0.235,0.709,-0.235,0.709,-0.235,0.709Z" fill="#808080" /></g><g transform="matrix(1,0,0,1,153.577,66.648)"><g fill="#ffffff"><path fill-rule="evenodd" d="" /></g><path d="M-4.884,-2.783C-6.267,-2.461,5.33,3.673,5.799,2.944C6.268,2.215,-1.059,-3.673,-4.884,-2.783Z" fill="#ffffff" /></g><g transform="matrix(1,0,0,1,172.843,68.707)"><g fill="#ffffff"><path fill-rule="evenodd" d="" /></g><path d="M-1.934,-0.257C-3.09,0.367,-2.997,1.614,-0.604,1.301C1.788,0.989,3.09,-0.885,2.83,-1.25C2.569,-1.614,-0.637,-0.957,-1.934,-0.257Z" fill="#ffffff" /></g><g transform="matrix(1,0,0,1,104.346,120.271)"><g fill="#ec55ce"><path fill-rule="evenodd" d="M-8.46,1.689C-8.601,2.457,8.026,2.641,8.417,-0.298C8.601,-1.685,5.095,-2.641,1.227,-2.641C-3.1,-2.641,-7.883,-1.444,-8.46,1.689Z" /></g></g><g transform="matrix(1,0,0,1,102.969,101.503)"><g fill="#2860b5"><path fill-rule="evenodd" d="M-2.994,8.75C-2.994,8.75,-3.67,4.214,-2.873,-1.877C-2.075,-7.967,-0.439,-11.901,0.535,-11.349C1.51,-10.796,1.359,-4.832,1.934,1.046C2.382,5.619,3.261,9.912,3.261,9.912C3.261,9.912,-0.946,13.936,-2.994,8.75Z" /></g></g><g transform="matrix(1,0,0,1,500,200)"><path fill="#7cf0fb" fill-rule="evenodd" d="M-316.047,-126.57C-316.047,-126.57,-318.25,-129.3,-321.253,-128.574C-324.256,-127.848,-324.456,-118.388,-322.659,-118.153C-320.863,-117.919,-320.101,-123.386,-318.725,-124.245C-317.349,-125.104,-314.942,-124.771,-314.942,-124.771C-314.942,-124.771,-316.047,-126.57,-316.047,-126.57Z" /></g><g transform="matrix(1,0,0,1,96.045,75.211)"><g fill="#7cf0fb"><path fill-rule="evenodd" d="M-4.885,1.505C-4.885,1.505,-3.726,0.191,-1.123,0.617C1.48,1.043,2.981,6.385,4.314,5.849C5.646,5.312,4.668,-3.343,1.148,-5.888C1.148,-5.888,-3.39,-2.014,-4.885,1.505Z" /></g></g><g transform="matrix(1,0,0,1,83.297,95.229)"><g fill="#dacff7"><path fill-rule="evenodd" d="M-4.319,5.173C-3.759,5.91,4.88,-4.841,4.328,-5.91C4.328,-5.91,-4.88,4.434,-4.319,5.173Z" /></g></g></g></g></g></g></g></g></g><g><g transform="translate(983.73,1265.851)"><animateTransform repeatCount="indefinite" type="translate" attributeName="transform" dur="3.017s" begin="0s" calcMode="spline" values="983.73 1265.851; 987.73 1105.851; 983.73 1265.851; 983.73 1265.851" keyTimes="0; 0.497238; 0.994475; 1" keySplines="0.217 0 0.282 1; 0.333 0 0.667 1; 0 0 1 1" fill="freeze" /><g transform="scale(7.1,7.1) translate(-138.215,-179.134)"><g><g transform="translate(112.329,161.13)"><g transform="rotate(10)"><animateTransform repeatCount="indefinite" type="rotate" attributeName="transform" dur="3.017s" begin="0s" calcMode="spline" values="10; -5; 10; 10" keyTimes="0; 0.419889; 0.98895; 1" keySplines="0.167 0.167 0.667 1; 0.333 0 0.667 1; 0 0 1 1" fill="freeze" /><g transform="scale(1,1) translate(-112.329,-161.13)"><g transform="matrix(1,0,0,1,101.07,179.736)"><g fill="#d8cdf7"><path fill-rule="evenodd" d="M6.368,-21.133C6.368,-21.133,6.352,-21.117,6.352,-21.117C6.352,-21.109,6.344,-21.1,6.336,-21.092C6.303,-21.05,6.269,-21.01,6.228,-20.96C6.212,-20.927,6.188,-20.895,6.154,-20.861C6.13,-20.828,6.105,-20.796,6.071,-20.754C6.022,-20.688,5.964,-20.622,5.923,-20.556C5.907,-20.532,5.89,-20.507,5.865,-20.482C1.818,-15.272,-2.881,-8.199,-6.565,-0.599C-13.902,14.528,-15.313,27.883,-15.313,27.883C-15.313,27.883,-14.059,28.287,-12.138,28.567C-8.973,29.028,-4.002,29.161,0.153,26.63C0.153,26.63,0.161,26.622,0.161,26.622C0.367,26.16,7.169,11.487,11.695,-0.17C14.431,-7.21,15.272,-15.924,15.296,-21.95C15.313,-26.047,14.942,-28.899,14.522,-29.13C14.483,-29.151,14.436,-29.161,14.382,-29.161C13.449,-29.16,10.255,-26.063,6.368,-21.133Z" /></g></g><g transform="matrix(1,0,0,1,101.062,183.044)"><g fill="#c3b4ec"><path fill-rule="evenodd" d="M15.304,-25.258C15.28,-19.231,14.439,-10.519,11.702,-3.479C7.176,8.178,0.375,22.852,0.169,23.313C0.169,23.313,0.161,23.322,0.161,23.322C0.161,23.322,-12.13,25.258,-12.13,25.258C-14.051,24.977,-15.304,24.575,-15.304,24.575C-15.304,24.575,-13.895,11.219,-6.558,-3.908C-2.873,-11.508,1.826,-18.58,5.874,-23.79C3.557,-20.732,-6.137,-7.419,-8.742,3.892C-11.71,16.76,0.26,11.806,5.156,3.892C10.045,-4.022,15.156,-25.258,15.156,-25.258C15.156,-25.258,15.304,-25.258,15.304,-25.258Z" /></g></g><g transform="matrix(1,0,0,1,106.095,172.524)"><g fill="#ffffff"><path fill-rule="evenodd" d="" /></g><path d="M-3.105,5.831C-4.08,5.465,0.956,-5.936,2.518,-6.04C4.08,-6.144,-2.272,6.143,-3.105,5.831Z" fill="#ffffff" /></g><g transform="matrix(1,0,0,1,102.167,180.543)"><g fill="#ffffff"><path fill-rule="evenodd" d="" /></g><path d="M0.313,-0.972C-0.456,-1.379,-1.183,0.754,-0.48,1.066C0.223,1.379,1.183,-0.511,0.313,-0.972Z" fill="#ffffff" /></g><g transform="matrix(1,0,0,1,94.014,205.393)"><g fill="#977ade"><path fill-rule="evenodd" d="M-8.194,1.704C0.149,6.079,7.205,0.973,7.205,0.973C7.205,0.973,8.194,-4.832,2.676,-5.978C2.34,-6.048,2.004,-6.08,1.67,-6.08C-3.475,-6.08,-8.194,1.704,-8.194,1.704Z" /></g></g></g></g></g></g></g></g></g><g><g transform="translate(983.73,1265.851)"><animateTransform repeatCount="indefinite" type="translate" attributeName="transform" dur="3.017s" begin="0s" calcMode="spline" values="983.73 1265.851; 987.73 1105.851; 983.73 1265.851; 983.73 1265.851" keyTimes="0; 0.497238; 0.994475; 1" keySplines="0.217 0 0.282 1; 0.333 0 0.667 1; 0 0 1 1" fill="freeze" /><g transform="scale(7.1,7.1) translate(-138.215,-179.134)"><g><g transform="translate(112.329,161.13)"><g transform="rotate(10)"><animateTransform repeatCount="indefinite" type="rotate" attributeName="transform" dur="3.017s" begin="0s" calcMode="spline" values="10; -5; 10; 10" keyTimes="0; 0.419889; 0.98895; 1" keySplines="0.167 0.167 0.667 1; 0.333 0 0.667 1; 0 0 1 1" fill="freeze" /><g transform="scale(1,1) translate(-112.329,-161.13)"><g><g transform="translate(93.767,205.496)"><g transform="rotate(0)"><animateTransform repeatCount="indefinite" type="rotate" attributeName="transform" dur="3.017s" begin="0s" calcMode="spline" values="0; -9; 0; 0" keyTimes="0; 0.419889; 0.823204; 1" keySplines="0.167 0.167 0.667 1; 0.333 0 0.833 0.833; 0 0 1 1" fill="freeze" /><g transform="scale(1,1) translate(-93.767,-205.496)"><g transform="matrix(1,0,0,1,93.42,218.8)"><g fill="#dbd0f7"><path fill-rule="evenodd" d="M-6.814,-12.115C-8.11,-9.716,-8.783,4.106,-5.519,15.528C-5.519,15.528,-0.911,16.776,2.544,15.528C6,14.28,8.399,4.202,8.59,-3.381C8.782,-10.964,6.191,-15.955,1.488,-16.723C1.267,-16.759,1.038,-16.776,0.803,-16.776C-1.993,-16.776,-5.618,-14.329,-6.814,-12.115Z" /></g></g><g transform="matrix(1,0,0,1,96.479,220.064)"><g fill="#b79aeb"><path fill-rule="evenodd" d="M-1.997,14.648C2.472,13.783,4.091,8.985,5.147,-0.421C6.204,-9.828,3.359,-14.649,3.359,-14.649C-6.204,-9.68,-1.997,14.648,-1.997,14.648Z" /></g></g><g transform="matrix(1,0,0,1,97.345,219.979)"><g fill="#836fd7"><path fill-rule="evenodd" d="M-3.552,1.233C-3.552,1.233,-1.094,4.826,0.586,5.412C2.266,5.999,3.577,5.38,3.577,5.38C3.577,5.38,-2.629,-5.664,-2.629,-5.664C-2.629,-5.664,-3.755,-1.277,-3.552,1.233Z" /></g></g><g transform="matrix(1,0,0,1,99.323,216.434)"><g fill="#dfd3f7"><path fill-rule="evenodd" d="M-4.607,-2.118C-3.936,2.776,-1.44,7.721,-1.44,7.721C1.536,10.504,3.648,7.721,3.648,7.721C4.607,-6.773,0.825,-10.504,0.825,-10.504C-3.244,-8.858,-4.607,-2.118,-4.607,-2.118Z" /></g></g><g transform="matrix(1,0,0,1,97.432,214.999)"><g fill="#ffffff"><path fill-rule="evenodd" d="" /></g><path d="M-0.389,-3.059C-1.772,-3.059,0.331,3.06,1.051,2.917C1.771,2.772,0.763,-3.059,-0.389,-3.059Z" fill="#ffffff" /></g></g></g></g></g></g></g></g></g></g></g></g><g><g transform="translate(983.73,1265.851)"><animateTransform repeatCount="indefinite" type="translate" attributeName="transform" dur="3.017s" begin="0s" calcMode="spline" values="983.73 1265.851; 987.73 1105.851; 983.73 1265.851; 983.73 1265.851" keyTimes="0; 0.497238; 0.994475; 1" keySplines="0.217 0 0.282 1; 0.333 0 0.667 1; 0 0 1 1" fill="freeze" /><g transform="scale(7.1,7.1) translate(-138.215,-179.134)"><g><g transform="translate(151.022,209.978)"><g transform="rotate(0)"><animateTransform repeatCount="indefinite" type="rotate" attributeName="transform" dur="3.017s" begin="0s" calcMode="spline" values="0; 16; 0; 0" keyTimes="0; 0.41989; 0.81768; 1" keySplines="0.167 0.167 0.667 1; 0.333 0 0.833 0.833; 0 0 1 1" fill="freeze" /><g transform="scale(1,1) translate(-151.022,-209.978)"><g transform="matrix(1,0,0,1,154.476,224.63)"><g fill="#dcd0f7"><path fill-rule="evenodd" d="M-11.804,-7.275C-11.953,-7.069,-12.011,-6.64,-11.986,-6.038C-11.795,-1.183,-6.404,15.09,-1.632,20.449C-1.632,20.449,-1.632,20.456,-1.632,20.456C-0.865,21.313,-0.114,21.89,0.594,22.096C0.8,22.163,1.006,22.196,1.204,22.188C1.963,22.172,2.729,21.387,3.479,20.036C6.628,14.405,9.554,-1.075,10.973,-11.618C11.064,-12.311,11.155,-12.978,11.228,-13.622C11.797,-18.313,12.011,-21.669,11.723,-22.072C11.662,-22.156,11.543,-22.195,11.373,-22.195C8.48,-22.194,-9.235,-10.763,-11.804,-7.275Z" /></g></g><g transform="matrix(1,0,0,1,154.043,211.313)"><g fill="#aa92ed"><path fill-rule="evenodd" d="M-11.552,7.275C-12.154,8.753,8.721,5.362,12.154,-8.753C12.154,-8.753,-5.894,-6.641,-11.552,7.275Z" /></g></g><g transform="matrix(1,0,0,1,154.402,227.107)"><g fill="#ffffff"><path fill-rule="evenodd" d="" /></g><path d="M-0.46,-3.605C-1.312,-3.342,-1.51,3.458,-0.089,3.835C1.331,4.211,1.51,-4.211,-0.46,-3.605Z" fill="#ffffff" /></g><g transform="matrix(1,0,0,1,500,200)"><path fill="#c5b8ee" fill-rule="evenodd" d="M-334.295,11.007C-334.295,11.007,-345.713,14.387,-348.351,19.803C-350.989,25.211,-350,38.071,-347.156,45.078C-351.929,39.72,-357.32,23.446,-357.51,18.591C-357.534,17.989,-357.477,17.561,-357.328,17.354C-354.608,13.661,-334.897,1.057,-333.801,2.558C-333.512,2.961,-333.727,6.316,-334.295,11.007Z" /></g></g></g></g></g></g></g></g><g><g transform="translate(983.73,1265.851)"><animateTransform repeatCount="indefinite" type="translate" attributeName="transform" dur="3.017s" begin="0s" calcMode="spline" values="983.73 1265.851; 987.73 1105.851; 983.73 1265.851; 983.73 1265.851" keyTimes="0; 0.497238; 0.994475; 1" keySplines="0.217 0 0.282 1; 0.333 0 0.667 1; 0 0 1 1" fill="freeze" /><g transform="scale(7.1,7.1) translate(-138.215,-179.134)"><g><g transform="translate(117.306,210.078)"><g transform="rotate(0)"><animateTransform repeatCount="indefinite" type="rotate" attributeName="transform" dur="3.017s" begin="0s" calcMode="spline" values="0; -15; 0; 0" keyTimes="0; 0.41989; 0.81768; 1" keySplines="0.167 0.167 0.667 1; 0.333 0 0.833 0.833; 0 0 1 1" fill="freeze" /><g transform="scale(1,1) translate(-117.306,-210.078)"><g transform="matrix(1,0,0,1,122.339,224.158)"><g fill="#d3c9f7"><path fill-rule="evenodd" d="M-11.611,-18.732C-11.958,-18.229,-11.57,-15.121,-10.713,-10.926C-9.138,-3.226,-5.956,8.16,-2.724,13.947C-1.662,15.851,-0.589,17.145,0.434,17.507C5.165,19.198,10.442,3.165,11.628,-3.777C11.909,-5.393,11.958,-6.514,11.736,-6.803C10.664,-8.157,-5.58,-19.199,-10.432,-19.199C-10.988,-19.199,-11.394,-19.053,-11.611,-18.732Z" /></g></g><g transform="matrix(1,0,0,1,500,200)"><path fill="#c5b8ee" fill-rule="evenodd" d="M-381.367,17.61C-382.38,18.863,-381.127,35.104,-377.229,41.665C-378.25,41.303,-379.322,40.008,-380.386,38.104C-381.021,35.26,-381.96,31.039,-382.851,26.826C-383.988,21.402,-386.89,15.838,-388.374,13.232C-389.231,9.037,-389.619,5.929,-389.272,5.426C-387.162,2.302,-367.122,15.846,-365.926,17.354C-365.704,17.644,-365.753,18.765,-366.034,20.38C-366.034,20.38,-380.353,16.365,-381.367,17.61Z" /></g><g transform="matrix(1,0,0,1,121.358,213.147)"><g fill="#958aef"><path fill-rule="evenodd" d="M-10.631,-7.717C-12.849,-4.819,5.227,8.301,12.849,4.874C12.849,4.874,-3.602,-8.301,-9.167,-8.302C-9.82,-8.302,-10.322,-8.121,-10.631,-7.717Z" /></g></g></g></g></g></g></g></g></g><g><g transform="translate(983.73,1265.851)"><animateTransform repeatCount="indefinite" type="translate" attributeName="transform" dur="3.017s" begin="0s" calcMode="spline" values="983.73 1265.851; 987.73 1105.851; 983.73 1265.851; 983.73 1265.851" keyTimes="0; 0.497238; 0.994475; 1" keySplines="0.217 0 0.282 1; 0.333 0 0.667 1; 0 0 1 1" fill="freeze" /><g transform="scale(7.1,7.1) translate(-138.215,-179.134)"><g transform="matrix(1,0,0,1,137.964,179.133)"><g fill="#dfd4f7"><path fill-rule="evenodd" d="M-19.215,-27.068C-19.215,-27.068,-19.215,-27.061,-19.223,-27.053C-20.097,-25.741,-20.888,-24.339,-21.598,-22.872C-21.598,-22.872,-21.606,-22.855,-21.606,-22.855C-22.389,-21.231,-23.067,-19.525,-23.626,-17.753C-27.377,-5.882,-28.465,13.177,-25.654,23.482C-22.842,33.794,-12.2,38.477,0.363,38.477C14.798,38.477,24.864,30.983,26.767,19.738C28.466,9.698,27.913,-2.065,25.317,-12.848C25.309,-12.889,25.3,-12.921,25.3,-12.947C24.476,-16.392,23.437,-19.731,22.201,-22.88C21.129,-25.617,19.628,-28.189,17.715,-30.423C13.602,-35.229,7.56,-38.477,-0.338,-38.477C-7.921,-38.477,-14.632,-33.967,-19.215,-27.068Z" /></g></g><g transform="matrix(1,0,0,1,500,200)"><path fill="#9080ec" fill-rule="evenodd" d="M-336.053,-30.706C-336.053,-30.706,-338.226,-43.157,-345.126,-52.185C-345.126,-52.185,-343.895,-38.829,-336.053,-30.706Z" /></g><g transform="matrix(1,0,0,1,138.215,186.936)"><g fill="#bfb0eb"><path fill-rule="evenodd" d="M26.516,11.937C24.612,23.181,14.547,30.674,0.113,30.674C-12.451,30.674,-23.094,25.992,-25.905,15.679C-28.716,5.375,-27.629,-13.685,-23.878,-25.556C-23.317,-27.328,-22.64,-29.034,-21.857,-30.658C-21.857,-30.658,-21.85,-30.675,-21.85,-30.675C-21.85,-30.675,-29.449,-5.474,-23.374,10.576C-17.298,26.627,11.01,26.289,20.589,15.622C29.706,5.474,25.494,-18.367,25.066,-20.65C27.662,-9.868,28.214,1.896,26.516,11.937Z" /></g></g><g transform="matrix(1,0,0,1,500,200)"><path fill="#9f8cef" fill-rule="evenodd" d="M-387.149,-7.799C-389.159,6.314,-377.361,16.363,-361.81,16.363C-346.26,16.363,-337.583,7.096,-337.375,-4.775C-337.167,-16.646,-344.958,-30.481,-359.451,-31.849C-360.206,-31.92,-360.954,-31.955,-361.699,-31.955C-374.221,-31.954,-385.121,-22.042,-387.149,-7.799Z" /></g><g transform="matrix(1,0,0,1,136.972,193.453)"><g fill="url(#i1)"><path fill-rule="evenodd" d="M-23.986,-0.003C-25.996,14.11,-14.198,24.159,1.353,24.159C16.904,24.159,25.58,14.892,25.788,3.021C25.996,-8.849,18.206,-22.685,3.712,-24.053C2.958,-24.124,2.208,-24.159,1.464,-24.159C-11.059,-24.159,-21.958,-14.246,-23.986,-0.003Z" /></g></g><g transform="matrix(1,0,0,1,137.156,148.134)"><g fill="#aca1df"><path fill-rule="evenodd" d="M18.523,0.576C15.448,5.399,-1.476,8.206,-11.258,7.313C-19.774,6.535,-18.481,4.236,-18.415,3.948C-18.407,3.94,-18.408,3.931,-18.408,3.931C-13.824,-2.968,-7.114,-7.478,0.47,-7.478C8.368,-7.478,14.41,-4.23,18.523,0.576Z" /></g></g><g transform="matrix(1,0,0,1,150.766,161.197)"><g fill="#ffffff"><path fill-rule="evenodd" d="" /></g><path d="M-1.102,-4.128C-1.888,-3.868,-1.926,2.477,-1.102,3.499C-0.278,4.521,1.044,4.206,1.485,2.713C1.925,1.219,0.088,-4.521,-1.102,-4.128Z" fill="#ffffff" /></g><g transform="matrix(1,0,0,1,151.445,167.722)"><g fill="#ffffff"><path fill-rule="evenodd" d="" /></g><path d="M-0.327,-1.337C-0.983,-1.181,-1.058,0.393,-0.756,0.944C-0.452,1.494,0.688,1.376,0.873,0.708C1.058,0.039,0.334,-1.494,-0.327,-1.337Z" fill="#ffffff" /></g><g transform="matrix(1,0,0,1,500,200)" opacity="0.5"><path fill="#9bf4fc" fill-rule="evenodd" d="M-378.502,8.818C-378.502,8.818,-375.028,14.867,-362.092,14.917C-349.155,14.968,-343.895,7.264,-343.895,7.264C-343.895,7.264,-349.863,11.154,-358.398,8.818C-366.934,6.482,-375.375,5.17,-378.502,8.818Z" /></g><g transform="matrix(1,0,0,1,500,200)"><path fill="#9bf4fc" fill-rule="evenodd" d="M-381.874,-16.125C-379.319,-12.049,-368.805,-14.22,-356.958,-13.064C-345.11,-11.908,-343.089,-8.054,-340.59,-8.834C-338.09,-9.616,-342.039,-27.451,-359.74,-28.661C-377.442,-29.871,-382.51,-17.14,-381.874,-16.125Z" /></g></g></g></g><g><g transform="translate(983.73,1265.851)"><animateTransform repeatCount="indefinite" type="translate" attributeName="transform" dur="3.017s" begin="0s" calcMode="spline" values="983.73 1265.851; 987.73 1105.851; 983.73 1265.851; 983.73 1265.851" keyTimes="0; 0.497238; 0.994475; 1" keySplines="0.217 0 0.282 1; 0.333 0 0.667 1; 0 0 1 1" fill="freeze" /><g transform="scale(7.1,7.1) translate(-138.215,-179.134)"><g><g transform="translate(162.796,159.626)"><animateTransform repeatCount="indefinite" type="translate" attributeName="transform" dur="3.017s" begin="0s" calcMode="spline" values="162.796 159.626; 161.669 155.119; 162.796 159.626; 162.796 159.626" keyTimes="0; 0.41989; 0.81768; 1" keySplines="0.167 0.167 0.667 1; 0.333 0 0.667 1; 0 0 1 1" fill="freeze" /><g transform="rotate(25)"><animateTransform repeatCount="indefinite" type="rotate" attributeName="transform" dur="3.017s" begin="0s" calcMode="spline" values="25; 0; 25; 25" keyTimes="0; 0.41989; 0.81768; 1" keySplines="0.167 0.167 0.331 1; 0.333 0 0.667 1; 0 0 1 1" fill="freeze" /><g transform="scale(1,1) translate(-161.669,-155.119)"><g transform="matrix(1,0,0,1,176.718,141.698)"><g fill="#d8cdf7"><path fill-rule="evenodd" d="M-20.205,3.286C-20.346,3.352,-20.477,3.451,-20.576,3.574C-20.576,3.574,-20.584,3.583,-20.584,3.583C-22.637,6.039,-17.443,18.636,-11.483,22.493C-11.483,22.493,10.198,14.167,22.489,-10.201C22.489,-10.201,22.637,-14.289,20.93,-17.76C19.768,-20.151,17.724,-22.236,14.154,-22.492C14.154,-22.492,6.24,-9.368,-20.205,3.286Z" /></g></g><g transform="matrix(1,0,0,1,500,200)"><path fill="#c3b4ec" fill-rule="evenodd" d="M-300.793,-68.502C-313.084,-44.134,-334.766,-35.809,-334.766,-35.809C-340.726,-39.667,-345.919,-52.263,-343.866,-54.719C-343.866,-54.719,-343.858,-54.728,-343.858,-54.728C-343.743,-54.834,-343.619,-54.925,-343.487,-55.016C-343.487,-55.016,-339.618,-40.809,-328.284,-44.75C-314.836,-49.426,-309.334,-72.797,-309.334,-72.797C-309.334,-72.797,-309.334,-79.648,-309.334,-79.648C-309.334,-79.648,-302.352,-76.062,-302.352,-76.062C-300.645,-72.591,-300.793,-68.502,-300.793,-68.502Z" /></g><g transform="matrix(1,0,0,1,193.94,128.166)"><g fill="#a38ee9"><path fill-rule="evenodd" d="M-3.064,-8.956C-5.266,-8.369,-5.043,6.247,-2.232,7.705C0.58,9.162,5.266,3.331,5.266,3.331C5.266,3.331,4.812,-9.161,-1.579,-9.162C-2.043,-9.163,-2.536,-9.097,-3.064,-8.956Z" /></g></g></g></g></g></g></g></g></g><g><g transform="translate(983.73,1265.851)"><animateTransform repeatCount="indefinite" type="translate" attributeName="transform" dur="3.017s" begin="0s" calcMode="spline" values="983.73 1265.851; 987.73 1105.851; 983.73 1265.851; 983.73 1265.851" keyTimes="0; 0.497238; 0.994475; 1" keySplines="0.217 0 0.282 1; 0.333 0 0.667 1; 0 0 1 1" fill="freeze" /><g transform="scale(7.1,7.1) translate(-138.215,-179.134)"><g><g transform="translate(162.796,159.626)"><animateTransform repeatCount="indefinite" type="translate" attributeName="transform" dur="3.017s" begin="0s" calcMode="spline" values="162.796 159.626; 161.669 155.119; 162.796 159.626; 162.796 159.626" keyTimes="0; 0.41989; 0.81768; 1" keySplines="0.167 0.167 0.667 1; 0.333 0 0.667 1; 0 0 1 1" fill="freeze" /><g transform="rotate(25)"><animateTransform repeatCount="indefinite" type="rotate" attributeName="transform" dur="3.017s" begin="0s" calcMode="spline" values="25; 0; 25; 25" keyTimes="0; 0.41989; 0.81768; 1" keySplines="0.167 0.167 0.331 1; 0.333 0 0.667 1; 0 0 1 1" fill="freeze" /><g transform="scale(1,1) translate(-161.669,-155.119)"><g><g transform="translate(195.262,126.787)"><g transform="rotate(0)"><animateTransform repeatCount="indefinite" type="rotate" attributeName="transform" dur="3.017s" begin="0s" calcMode="spline" values="0; 0; -10; 0; 0" keyTimes="0; 0.066298; 0.19337; 0.453039; 1" keySplines="0 0 1 1; 0.167 0.167 0.667 1; 0.333 0 0.833 0.833; 0 0 1 1" fill="freeze" /><g transform="scale(1,1) translate(-195.262,-126.787)"><g transform="matrix(1,0,0,1,200.659,115.518)"><g fill="#d3c8f7"><path fill-rule="evenodd" d="M-4.529,-13.425C-4.529,-13.425,-10.361,1.257,-10.569,7.817C-10.569,7.817,-10.673,15.523,-6.3,16.773C-1.926,18.022,3.54,9.852,5.571,6.465C7.601,3.079,10.674,-12.177,7.758,-15.821C6.576,-17.297,4.95,-18.021,3.185,-18.021C0.593,-18.021,-2.299,-16.46,-4.529,-13.425Z" /></g></g><g transform="matrix(1,0,0,1,197.082,109.271)"><g fill="#a48fee"><path fill-rule="evenodd" d="M-0.952,-7.179C-5.43,-2.285,-6.755,11.778,-6.755,11.778C-6.755,11.778,-1.681,7.92,-0.536,1.985C0.609,-3.951,6.756,-11.774,6.756,-11.774C6.756,-11.774,6.718,-11.778,6.644,-11.778C6.039,-11.778,3.038,-11.541,-0.952,-7.179Z" /></g></g><g transform="matrix(1,0,0,1,500,200)"><path fill="#7b65d0" fill-rule="evenodd" d="M-304.671,-96.893C-304.671,-96.893,-300.794,-95.43,-300.794,-95.43C-300.794,-95.43,-302.51,-92.537,-303.211,-89.776C-303.911,-87.016,-306.54,-83.248,-306.54,-83.248C-306.54,-83.248,-304.671,-96.893,-304.671,-96.893Z" /></g><g transform="matrix(1,0,0,1,201.388,116.752)"><g fill="#b297ec"><path fill-rule="evenodd" d="M-4.842,-5.496C-4.842,-5.496,-2.237,3.092,4.036,6.529C4.036,6.529,4.842,5.231,4.842,5.231C4.842,5.231,-1.544,1.864,-4.599,-6.529C-4.599,-6.529,-4.842,-5.496,-4.842,-5.496Z" /></g></g></g></g></g></g></g></g></g></g></g></g></g><g><g transform="translate(1558.678,686.658)"><animateTransform repeatCount="indefinite" type="translate" attributeName="transform" dur="3.017s" begin="0s" calcMode="spline" values="1558.678 686.658; 1558.678 686.658; 1514.678 250.658; 1514.678 250.658; 1558.678 686.658; 1558.678 686.658" keyTimes="0; 0.066298; 0.414365; 0.453039; 0.98895; 1" keySplines="0 0 1 1; 0.478 0.475 0.563 1; 0 0 1 1; 0.204 0 0.751 1; 0 0 1 1" fill="freeze" /><g transform="scale(7.1,7.1)"><animateTransform repeatCount="indefinite" type="scale" attributeName="transform" dur="3.017s" begin="0s" calcMode="spline" values="7.1 7.1; 7.1 7.1; 7.71 5.93; 7.1 7.1; 6.75 6.82; 7.1 7.1; 7.1 7.1" keyTimes="0; 0.066298; 0.325967; 0.513812; 0.767956; 0.983426; 1" keySplines="0 0 1 1; 0 0 1 1; 0 0 1 1; 0.167 0.167 0.667 1; 0.333 0 0.833 0.833; 0 0 1 1" fill="freeze" /><g transform="translate(-219.758,-66.572)"><g transform="matrix(1,0,0,1,224.715,67.173)"><path fill="#d527ae" fill-rule="evenodd" d="M12.186,-21.063C12.186,-21.063,15.101,-19.813,15.101,-19.813C15.101,-19.813,12.186,12.83,12.186,12.83C12.186,12.83,9.686,13.948,9.686,13.948C9.686,13.948,-4.059,15.324,-4.059,15.324C-4.059,15.324,-5.1,21.063,-5.1,21.063C-5.1,21.063,-15.101,12.83,-15.101,12.83C-15.101,12.83,12.186,-21.063,12.186,-21.063Z" /></g><g transform="matrix(1,0,0,1,218.251,66.572)"><path fill="#f763c3" fill-rule="evenodd" d="M-18.551,-20.462C-18.551,-20.462,-18.649,3.081,-16.863,14.482C-16.863,14.482,1.364,21.664,1.364,21.664C1.364,21.664,-1.552,16.556,-1.552,16.556C-1.552,16.556,16.15,14.549,16.15,14.549C16.15,14.549,18.025,-11.923,18.65,-20.462C18.65,-20.462,12.447,-21.664,1.426,-21.664C-4.086,-21.664,-10.801,-21.364,-18.551,-20.462Z" /></g><g transform="matrix(1,0,0,1,213.997,64.09)"><path fill="#ffffff" d="M-0.918,-7.45C-0.988,-6.073,-1.047,-4.707,-1.096,-3.354C-1.144,-2.001,-1.179,-0.643,-1.2,0.72C-1.026,0.734,-0.85,0.741,-0.673,0.741C-0.673,0.741,-0.146,0.741,-0.146,0.741C0.077,0.741,0.304,0.738,0.538,0.731C0.77,0.724,1.005,0.714,1.242,0.699C1.256,0.393,1.263,0.092,1.263,-0.203C1.263,-0.203,1.263,-1.116,1.263,-1.116C1.263,-2.174,1.252,-3.227,1.231,-4.278C1.21,-5.328,1.176,-6.386,1.127,-7.45C1.127,-7.45,3.694,-7.45,3.694,-7.45C3.569,-5.773,3.473,-4.109,3.407,-2.457C3.341,-0.805,3.308,0.86,3.308,2.536C3.308,3.357,3.318,4.174,3.339,4.988C3.36,5.802,3.388,6.623,3.423,7.45C3.423,7.45,1.043,7.45,1.043,7.45C1.078,6.623,1.109,5.799,1.138,4.977C1.165,4.157,1.193,3.336,1.221,2.515C0.824,2.494,0.43,2.475,0.037,2.458C-0.356,2.44,-0.748,2.431,-1.137,2.431C-1.137,2.431,-1.221,2.431,-1.221,2.431C-1.221,2.431,-1.221,4.581,-1.221,4.581C-1.221,4.581,-1.221,6.021,-1.221,6.021C-1.221,6.494,-1.214,6.97,-1.2,7.45C-1.2,7.45,-3.589,7.45,-3.589,7.45C-3.555,6.449,-3.532,5.459,-3.522,4.482C-3.511,3.505,-3.506,2.522,-3.506,1.534C-3.506,-1.457,-3.568,-4.451,-3.694,-7.45C-3.694,-7.45,-0.918,-7.45,-0.918,-7.45Z" /></g><g transform="matrix(1,0,0,1,220.862,64.059)"><path fill="#ffffff" d="M2.192,7.419C1.914,7.405,1.634,7.395,1.357,7.388C1.078,7.381,0.801,7.377,0.523,7.377C0.064,7.377,-0.396,7.386,-0.855,7.403C-1.314,7.42,-1.773,7.447,-2.232,7.481C-2.232,7.481,-2.211,5.238,-2.211,5.238C-2.051,5.259,-1.891,5.274,-1.731,5.285C-1.571,5.295,-1.412,5.308,-1.251,5.322C-1.209,4.243,-1.171,3.17,-1.132,2.103C-1.094,1.035,-1.074,-0.035,-1.074,-1.106C-1.074,-1.822,-1.084,-2.53,-1.105,-3.229C-1.126,-3.929,-1.147,-4.633,-1.168,-5.342C-1.349,-5.342,-1.533,-5.339,-1.721,-5.332C-1.909,-5.325,-2.101,-5.314,-2.296,-5.301C-2.296,-5.301,-2.274,-7.481,-2.274,-7.481C-1.738,-7.447,-1.203,-7.42,-0.667,-7.403C-0.131,-7.386,0.408,-7.377,0.95,-7.377C0.95,-7.377,1.535,-7.377,1.535,-7.377C1.73,-7.377,1.928,-7.384,2.13,-7.398C2.13,-7.398,2.067,-5.322,2.067,-5.322C1.907,-5.322,1.749,-5.325,1.592,-5.332C1.436,-5.339,1.277,-5.342,1.117,-5.342C1.02,-4.09,0.95,-2.847,0.909,-1.612C0.867,-0.377,0.846,0.866,0.846,2.118C0.846,3.211,0.867,4.299,0.909,5.384C1.131,5.384,1.359,5.381,1.592,5.374C1.825,5.367,2.06,5.356,2.296,5.342C2.296,5.342,2.192,7.419,2.192,7.419Z" /></g><g transform="matrix(1,0,0,1,225.318,64.22)"><path fill="#ffffff" fill-rule="evenodd" d="M1.117,6.527C1.117,6.694,1.083,6.851,1.017,6.997C0.951,7.143,0.864,7.27,0.757,7.378C0.649,7.485,0.52,7.571,0.37,7.633C0.221,7.696,0.063,7.727,-0.104,7.727C-0.271,7.727,-0.426,7.696,-0.569,7.633C-0.712,7.571,-0.839,7.485,-0.949,7.378C-1.061,7.27,-1.148,7.143,-1.211,6.997C-1.273,6.851,-1.304,6.694,-1.304,6.527C-1.304,6.36,-1.273,6.206,-1.211,6.063C-1.148,5.92,-1.061,5.794,-0.949,5.682C-0.839,5.571,-0.712,5.484,-0.569,5.421C-0.426,5.359,-0.271,5.327,-0.104,5.327C0.063,5.327,0.221,5.359,0.37,5.421C0.52,5.484,0.649,5.571,0.757,5.682C0.864,5.794,0.951,5.92,1.017,6.063C1.083,6.206,1.117,6.36,1.117,6.527ZM1.304,-7.727C1.109,-5.8,0.956,-3.855,0.845,-1.893C0.734,0.068,0.668,1.999,0.647,3.898C0.647,3.898,-0.741,3.94,-0.741,3.94C-0.79,2.027,-0.854,0.086,-0.934,-1.883C-1.014,-3.851,-1.106,-5.792,-1.211,-7.705C-1.211,-7.705,1.304,-7.727,1.304,-7.727Z" /></g></g></g></g></g><g><g transform="translate(983.73,1265.851)"><animateTransform repeatCount="indefinite" type="translate" attributeName="transform" dur="3.017s" begin="0s" calcMode="spline" values="983.73 1265.851; 987.73 1105.851; 983.73 1265.851; 983.73 1265.851" keyTimes="0; 0.497238; 0.994475; 1" keySplines="0.217 0 0.282 1; 0.333 0 0.667 1; 0 0 1 1" fill="freeze" /><g transform="scale(7.1,7.1) translate(-138.215,-179.134)"><g><g transform="translate(162.796,159.626)"><animateTransform repeatCount="indefinite" type="translate" attributeName="transform" dur="3.017s" begin="0s" calcMode="spline" values="162.796 159.626; 161.669 155.119; 162.796 159.626; 162.796 159.626" keyTimes="0; 0.41989; 0.81768; 1" keySplines="0.167 0.167 0.667 1; 0.333 0 0.667 1; 0 0 1 1" fill="freeze" /><g transform="rotate(25)"><animateTransform repeatCount="indefinite" type="rotate" attributeName="transform" dur="3.017s" begin="0s" calcMode="spline" values="25; 0; 25; 25" keyTimes="0; 0.41989; 0.81768; 1" keySplines="0.167 0.167 0.331 1; 0.333 0 0.667 1; 0 0 1 1" fill="freeze" /><g transform="scale(1,1) translate(-161.669,-155.119)"><g><g transform="translate(195.262,126.787)"><g transform="rotate(0)"><animateTransform repeatCount="indefinite" type="rotate" attributeName="transform" dur="3.017s" begin="0s" calcMode="spline" values="0; 0; -10; 0; 0" keyTimes="0; 0.066298; 0.19337; 0.453039; 1" keySplines="0 0 1 1; 0.167 0.167 0.667 1; 0.333 0 0.833 0.833; 0 0 1 1" fill="freeze" /><g transform="scale(1,1) translate(-195.262,-126.787)"><g transform="matrix(1,0,0,1,0,0)"><g transform="matrix(1,0,0,1,192.432,109.654)"><g fill="#d6cbf7"><path fill-rule="evenodd" d="M-1.843,-9.436C-2.466,-8.656,-3.8,-4.229,-3.618,1.394C-3.436,7.016,-2.105,9.932,-2.105,9.932C2.401,8.578,3.801,-1.432,3.801,-1.432C3.801,-1.432,3.051,-7.613,2.01,-8.863C1.401,-9.593,0.402,-9.932,-0.449,-9.932C-1.054,-9.932,-1.583,-9.761,-1.843,-9.436Z" /></g></g><g transform="matrix(1,0,0,1,192.227,107.118)"><g fill="#ffffff"><path fill-rule="evenodd" d="" /></g><path d="M-0.258,-2.695C-0.887,-2.769,-0.676,2.768,0.105,2.535C0.887,2.303,0.627,-2.591,-0.258,-2.695Z" fill="#ffffff" /></g></g></g></g></g></g></g></g></g></g></g></g></g></g></g></svg>