<svg fill="none" height="100%" width="100%" viewBox="0 0 500 500" xmlns:xlink="http://www.w3.org/1999/xlink" xmlns="http://www.w3.org/2000/svg"><defs><linearGradient id="i0" gradientUnits="userSpaceOnUse" spreadMethod="pad" x2="93.5" y2="60" x1="4.25" y1="-2.75"><stop offset="0%" stop-color="#06bed8" /><stop stop-opacity="0.995" offset="50%" stop-color="#60d7b9" /><stop stop-opacity="0.994" offset="60%" stop-color="#72dcb3" /><stop stop-opacity="0.99" offset="100%" stop-color="#defa8e" /></linearGradient><linearGradient id="i1" gradientUnits="userSpaceOnUse" spreadMethod="pad" x2="5" y2="-1.25" x1="-9.25" y1="1.75"><stop offset="0%" stop-color="#06bed8" /><stop stop-opacity="0.995" offset="50%" stop-color="#60d7b9" /><stop stop-opacity="0.994" offset="60%" stop-color="#72dcb3" /><stop stop-opacity="0.99" offset="100%" stop-color="#defa8e" /></linearGradient><linearGradient id="i2" gradientUnits="userSpaceOnUse" spreadMethod="pad" x2="5.688" y2="-2.25" x1="-14.188" y1="6.687"><stop offset="0%" stop-color="#06bed8" /><stop stop-opacity="0.995" offset="50%" stop-color="#60d7b9" /><stop stop-opacity="0.994" offset="60%" stop-color="#72dcb3" /><stop stop-opacity="0.99" offset="100%" stop-color="#defa8e" /></linearGradient><linearGradient id="i3" gradientUnits="userSpaceOnUse" spreadMethod="pad" x2="13.5" y2="-14" x1="-14" y1="15.5"><stop offset="0%" stop-color="#06bed8" /><stop stop-opacity="0.995" offset="50%" stop-color="#60d7b9" /><stop stop-opacity="0.994" offset="60%" stop-color="#72dcb3" /><stop stop-opacity="0.99" offset="100%" stop-color="#defa8e" /></linearGradient><linearGradient id="i4" gradientUnits="userSpaceOnUse" spreadMethod="pad" x2="55" y2="-42" x1="-46.5" y1="55"><stop offset="0%" stop-color="#06bed8" /><stop stop-opacity="0.995" offset="50%" stop-color="#60d7b9" /><stop stop-opacity="0.994" offset="60%" stop-color="#72dcb3" /><stop stop-opacity="0.99" offset="100%" stop-color="#defa8e" /></linearGradient><linearGradient id="i5" gradientUnits="userSpaceOnUse" spreadMethod="pad" x2="-0.5" y2="-18.5" x1="-1" y1="21"><stop offset="0%" stop-color="#030d14" /><stop stop-opacity="0.995" offset="50%" stop-color="#061b29" /><stop stop-opacity="0.994" offset="60%" stop-color="#071e2d" /><stop stop-opacity="0.99" offset="100%" stop-color="#0b2f45" /></linearGradient><radialGradient id="i6" gradientUnits="userSpaceOnUse" spreadMethod="pad" cx="0" cy="0" r="17.252" fy="0" fx="0"><stop offset="0%" stop-color="#3280fc" /><stop stop-opacity="0.75" offset="50%" stop-color="#1d4b93" /><stop stop-opacity="0.7" offset="60%" stop-color="#19407e" /><stop stop-opacity="0.5" offset="100%" stop-color="#000000" /></radialGradient><radialGradient id="i7" gradientUnits="userSpaceOnUse" spreadMethod="pad" cx="0" cy="0" r="17.252" fy="0" fx="0"><stop offset="0%" stop-color="#3280fc" /><stop stop-opacity="0.75" offset="50%" stop-color="#1d4b93" /><stop stop-opacity="0.7" offset="60%" stop-color="#19407e" /><stop stop-opacity="0.5" offset="100%" stop-color="#000000" /></radialGradient><mask id="i8"><rect fill="white" height="100%" width="100%" /><path fill="white" d="M27.5,22.25C27.5,27.773,23.023,32.25,17.5,32.25C11.977,32.25,7.5,27.773,7.5,22.25C7.5,16.727,11.977,12.25,17.5,12.25C23.023,12.25,27.5,16.727,27.5,22.25Z"><animate repeatCount="indefinite" begin="0s" keySplines="0 0 1 1; 0 0 1 1; 0 0 1 1" calcMode="spline" fill="freeze" dur="4s" keyTimes="0; 0.041667; 0.083333; 1" values="M27.5,22.25C27.5,27.773,23.023,32.25,17.5,32.25C11.977,32.25,7.5,27.773,7.5,22.25C7.5,16.727,11.977,12.25,17.5,12.25C23.023,12.25,27.5,16.727,27.5,22.25Z; M27.5,22.25C27.5,22.254,23.023,22.258,17.5,22.258C11.977,22.258,7.5,22.254,7.5,22.25C7.5,22.246,11.977,22.242,17.5,22.242C23.023,22.242,27.5,22.246,27.5,22.25Z; M27.5,22.25C27.5,27.773,23.023,32.25,17.5,32.25C11.977,32.25,7.5,27.773,7.5,22.25C7.5,16.727,11.977,12.25,17.5,12.25C23.023,12.25,27.5,16.727,27.5,22.25Z; M27.5,22.25C27.5,27.773,23.023,32.25,17.5,32.25C11.977,32.25,7.5,27.773,7.5,22.25C7.5,16.727,11.977,12.25,17.5,12.25C23.023,12.25,27.5,16.727,27.5,22.25Z" attributeName="d" /></path><path fill="white" d="M74.5,22.257C74.5,27.78,70.023,32.257,64.5,32.257C58.977,32.257,54.5,27.78,54.5,22.257C54.5,16.734,58.977,12.257,64.5,12.257C70.023,12.257,74.5,16.734,74.5,22.257Z"><animate repeatCount="indefinite" begin="0s" keySplines="0 0 1 1; 0 0 1 1; 0 0 1 1" calcMode="spline" fill="freeze" dur="4s" keyTimes="0; 0.041667; 0.083333; 1" values="M74.5,22.257C74.5,27.78,70.023,32.257,64.5,32.257C58.977,32.257,54.5,27.78,54.5,22.257C54.5,16.734,58.977,12.257,64.5,12.257C70.023,12.257,74.5,16.734,74.5,22.257Z; M74.5,22.257C74.5,22.257,70.023,22.258,64.5,22.258C58.977,22.258,54.5,22.257,54.5,22.257C54.5,22.257,58.977,22.257,64.5,22.257C70.023,22.257,74.5,22.257,74.5,22.257Z; M74.5,22.257C74.5,27.78,70.023,32.257,64.5,32.257C58.977,32.257,54.5,27.78,54.5,22.257C54.5,16.734,58.977,12.257,64.5,12.257C70.023,12.257,74.5,16.734,74.5,22.257Z; M74.5,22.257C74.5,27.78,70.023,32.257,64.5,32.257C58.977,32.257,54.5,27.78,54.5,22.257C54.5,16.734,58.977,12.257,64.5,12.257C70.023,12.257,74.5,16.734,74.5,22.257Z" attributeName="d" /></path></mask><linearGradient id="i9" gradientUnits="userSpaceOnUse" spreadMethod="pad" x2="23.5" y2="-28.25" x1="-2.375" y1="0.625"><stop offset="0%" stop-color="#0da9ab" /><stop stop-opacity="0.995" offset="50%" stop-color="#65cb9f" /><stop stop-opacity="0.994" offset="60%" stop-color="#76d29d" /><stop stop-opacity="0.99" offset="100%" stop-color="#defa8e" /></linearGradient><linearGradient id="i10" gradientUnits="userSpaceOnUse" spreadMethod="pad" x2="41.011" y2="-61.798" x1="-26.303" y1="27.163"><stop offset="0%" stop-color="#0da9ab" /><stop stop-opacity="0.997" offset="32.7%" stop-color="#4ec9af" /><stop stop-opacity="0.995" offset="50%" stop-color="#81e3b2" /><stop stop-opacity="0.995" offset="54.5%" stop-color="#8eeab3" /><stop stop-opacity="0.992" offset="77.3%" stop-color="#b6f2a0" /><stop stop-opacity="0.99" offset="100%" stop-color="#defa8e" /></linearGradient><linearGradient id="i11" gradientUnits="userSpaceOnUse" spreadMethod="pad" x2="33" y2="-45" x1="-13.5" y1="7.5"><stop offset="0%" stop-color="#0da9ab" /><stop stop-opacity="0.995" offset="50%" stop-color="#65cb9f" /><stop stop-opacity="0.994" offset="60%" stop-color="#76d29d" /><stop stop-opacity="0.99" offset="100%" stop-color="#defa8e" /></linearGradient><linearGradient id="i12" gradientUnits="userSpaceOnUse" spreadMethod="pad" x2="-30" y2="-15" x1="23" y1="13"><stop offset="0%" stop-color="#0da9ab" /><stop stop-opacity="0.995" offset="50%" stop-color="#65cb9f" /><stop stop-opacity="0.994" offset="60%" stop-color="#76d29d" /><stop stop-opacity="0.99" offset="100%" stop-color="#defa8e" /></linearGradient><linearGradient id="i13" gradientUnits="userSpaceOnUse" spreadMethod="pad" x2="22" y2="-12" x1="-11.5" y1="7"><stop offset="0%" stop-color="#0da9ab" /><stop stop-opacity="0.995" offset="50%" stop-color="#65cb9f" /><stop stop-opacity="0.994" offset="60%" stop-color="#76d29d" /><stop stop-opacity="0.99" offset="100%" stop-color="#defa8e" /></linearGradient><radialGradient id="i14" gradientUnits="userSpaceOnUse" spreadMethod="pad" cx="0" cy="0" r="19.388" fy="0" fx="0"><stop offset="0%" stop-color="#bcd7d6" /><stop stop-opacity="0.5" offset="50%" stop-color="#d8e8e8" /><stop stop-opacity="0.4" offset="60%" stop-color="#deebeb" /><stop stop-opacity="0" offset="100%" stop-color="#ffffff" /></radialGradient><linearGradient id="i15" gradientUnits="userSpaceOnUse" spreadMethod="pad" x2="22" y2="22" x1="-6.5" y1="-12.5"><stop offset="0%" stop-color="#aef0eb" /><stop stop-opacity="0.995" offset="50%" stop-color="#c0f3eb" /><stop stop-opacity="0.994" offset="60%" stop-color="#c3f4eb" /><stop stop-opacity="0.99" offset="100%" stop-color="#d7f8ea" /></linearGradient><linearGradient id="i16" gradientUnits="userSpaceOnUse" spreadMethod="pad" x2="81" y2="0" x1="-79.5" y1="0"><stop offset="0%" stop-color="#d7f8ea" /><stop stop-opacity="0.997" offset="30%" stop-color="#e1f8ee" /><stop stop-opacity="0.995" offset="50%" stop-color="#ecf8f2" /><stop stop-opacity="0.992" offset="75%" stop-color="#e1f8ee" /><stop stop-opacity="0.99" offset="100%" stop-color="#d7f8ea" /></linearGradient><linearGradient id="i17" gradientUnits="userSpaceOnUse" spreadMethod="pad" x2="117.5" y2="-28" x1="-6" y1="1.5"><stop offset="0%" stop-color="#0da9ab" /><stop stop-opacity="0.995" offset="50%" stop-color="#65cb9f" /><stop stop-opacity="0.994" offset="60%" stop-color="#76d29d" /><stop stop-opacity="0.99" offset="100%" stop-color="#defa8e" /></linearGradient><linearGradient id="i18" gradientUnits="userSpaceOnUse" spreadMethod="pad" x2="90.5" y2="-23.5" x1="-32.5" y1="8.5"><stop offset="0%" stop-color="#0da9ab" /><stop stop-opacity="0.995" offset="50%" stop-color="#65cb9f" /><stop stop-opacity="0.994" offset="60%" stop-color="#76d29d" /><stop stop-opacity="0.99" offset="100%" stop-color="#defa8e" /></linearGradient><linearGradient id="i19" gradientUnits="userSpaceOnUse" spreadMethod="pad" x2="73.5" y2="-17" x1="-49.5" y1="12.5"><stop offset="0%" stop-color="#0da9ab" /><stop stop-opacity="0.995" offset="50%" stop-color="#65cb9f" /><stop stop-opacity="0.994" offset="60%" stop-color="#76d29d" /><stop stop-opacity="0.99" offset="100%" stop-color="#defa8e" /></linearGradient><linearGradient id="i20" gradientUnits="userSpaceOnUse" spreadMethod="pad" x2="60" y2="-18.5" x1="-61.5" y1="14.5"><stop offset="0%" stop-color="#0da9ab" /><stop stop-opacity="0.995" offset="50%" stop-color="#65cb9f" /><stop stop-opacity="0.994" offset="60%" stop-color="#76d29d" /><stop stop-opacity="0.99" offset="100%" stop-color="#defa8e" /></linearGradient><linearGradient id="i21" gradientUnits="userSpaceOnUse" spreadMethod="pad" x2="43.5" y2="-18.5" x1="-81" y1="8"><stop offset="0%" stop-color="#0da9ab" /><stop stop-opacity="0.995" offset="50%" stop-color="#65cb9f" /><stop stop-opacity="0.994" offset="60%" stop-color="#76d29d" /><stop stop-opacity="0.99" offset="100%" stop-color="#defa8e" /></linearGradient><linearGradient id="i22" gradientUnits="userSpaceOnUse" spreadMethod="pad" x2="21.5" y2="-17" x1="-101" y1="15.5"><stop offset="0%" stop-color="#0da9ab" /><stop stop-opacity="0.995" offset="50%" stop-color="#65cb9f" /><stop stop-opacity="0.994" offset="60%" stop-color="#76d29d" /><stop stop-opacity="0.99" offset="100%" stop-color="#defa8e" /></linearGradient></defs><g id="i23"><g transform="translate(273.389,222.954)"><animateTransform repeatCount="indefinite" type="translate" attributeName="transform" dur="4s" begin="0s" calcMode="spline" values="273.389 222.954; 273.389 202.954; 273.389 222.954; 273.389 202.954; 273.389 222.954" keyTimes="0; 0.25; 0.5; 0.75; 1" keySplines="0.333 0 0.667 1; 0.333 0 0.667 1; 0.333 0 0.667 1; 0.333 0 0.667 1" fill="freeze" /><g transform="scale(1,1) translate(0,0)"><g transform="matrix(1,0,0,1,-53.702,64.046)" id="i24"><g id="i25"><g transform="translate(13.243,18)"><g transform="rotate(6)"><animateTransform repeatCount="indefinite" type="rotate" attributeName="transform" dur="4s" begin="0s" calcMode="spline" values="6; -12; 6; -12; 6; 6; -12; 6; -12; 6; 6" keyTimes="0; 0.083333; 0.166667; 0.25; 0.333333; 0.583334; 0.666667; 0.75; 0.833333; 0.916667; 1" keySplines="0.333 0 0.667 1; 0.333 0 0.667 1; 0.333 0 0.667 1; 0.333 0 0.667 1; 0.298 0 0.667 1; 0.333 0 0.667 1; 0.333 0 0.667 1; 0.333 0 0.667 1; 0.333 0 0.667 1; 0 0 1 1" fill="freeze" /><g transform="scale(1,1) translate(-55.282,-25.376)"><g id="i26" transform="matrix(1,0,0,1,28.355,19.17)"><path fill="url(#i0)" d="M-7.327,-16.213C15.69,-9.908,21.127,-11.674,25.229,-5.503C25.7,-4.795,28.105,-1.176,27.624,3.471C27.239,7.173,25.178,10.029,23.88,11.286C15.995,18.919,-5.702,9.581,-18.128,-0.632C-20.837,-2.859,-28.106,-8.832,-26.642,-13.075C-26.042,-14.814,-24.179,-15.677,-22.842,-16.275C-16.93,-18.92,-10.798,-17.163,-7.327,-16.213Z" /></g></g></g></g></g></g></g></g></g><g id="i23"><g transform="translate(273.389,222.954)"><animateTransform repeatCount="indefinite" type="translate" attributeName="transform" dur="4s" begin="0s" calcMode="spline" values="273.389 222.954; 273.389 202.954; 273.389 222.954; 273.389 202.954; 273.389 222.954" keyTimes="0; 0.25; 0.5; 0.75; 1" keySplines="0.333 0 0.667 1; 0.333 0 0.667 1; 0.333 0 0.667 1; 0.333 0 0.667 1" fill="freeze" /><g transform="scale(1,1) translate(0,0)"><g transform="matrix(1,0,0,1,-83.042,-66.555)" id="i27"><g transform="matrix(1,0,0,1,70.419,-37.199)" id="i28"><g id="i29" transform="matrix(1,0,0,1,6.527,24.743)"><path fill="url(#i1)" d="M2.449,16.074C2.449,16.074,-2.449,16.074,-2.449,16.074C-2.449,16.074,-2.449,-16.074,-2.449,-16.074C-2.449,-16.074,2.449,-16.074,2.449,-16.074C2.449,-16.074,2.449,16.074,2.449,16.074Z" /></g><g id="i30" transform="matrix(1,0,0,1,6.527,6.526)"><path fill="url(#i2)" d="M6.277,0C6.277,3.466,3.466,6.276,0.001,6.276C-3.466,6.276,-6.277,3.466,-6.277,0C-6.277,-3.466,-3.466,-6.276,0.001,-6.276C3.466,-6.276,6.277,-3.466,6.277,0Z" /></g><g id="i26" transform="matrix(1,0,0,1,8.976,4.077)"><path fill="#ffffff" d="M1.914,0C1.914,1.057,1.057,1.914,0,1.914C-1.057,1.914,-1.914,1.057,-1.914,0C-1.914,-1.057,-1.057,-1.914,0,-1.914C1.057,-1.914,1.914,-1.057,1.914,0Z" /></g></g></g></g></g></g><g id="i23"><g transform="translate(273.389,222.954)"><animateTransform repeatCount="indefinite" type="translate" attributeName="transform" dur="4s" begin="0s" calcMode="spline" values="273.389 222.954; 273.389 202.954; 273.389 222.954; 273.389 202.954; 273.389 222.954" keyTimes="0; 0.25; 0.5; 0.75; 1" keySplines="0.333 0 0.667 1; 0.333 0 0.667 1; 0.333 0 0.667 1; 0.333 0 0.667 1" fill="freeze" /><g transform="scale(1,1) translate(0,0)"><g transform="matrix(1,0,0,1,-83.042,-66.555)" id="i27"><g id="i31" transform="matrix(1,0,0,1,76.947,10.813)"><path fill="url(#i3)" d="M16.917,10.563C16.917,10.563,-16.917,10.563,-16.917,10.563C-19.412,10.563,-21.434,8.541,-21.434,6.046C-21.434,6.046,-21.434,-6.046,-21.434,-6.046C-21.434,-8.541,-19.412,-10.563,-16.917,-10.563C-16.917,-10.563,16.917,-10.563,16.917,-10.563C19.411,-10.563,21.434,-8.541,21.434,-6.046C21.434,-6.046,21.434,6.046,21.434,6.046C21.434,8.541,19.411,10.563,16.917,10.563Z" /></g><g id="i32" transform="matrix(1,0,0,1,76.946,68.68)"><path fill="url(#i4)" d="M76.697,22.963C76.697,42.493,60.863,58.326,41.333,58.326C41.333,58.326,-41.333,58.326,-41.333,58.326C-60.783,58.326,-76.697,42.412,-76.697,22.963C-76.697,22.963,-76.697,4.592,-76.697,4.592C-76.697,-30.013,-48.384,-58.326,-13.779,-58.326C-13.779,-58.326,13.777,-58.326,13.777,-58.326C48.383,-58.326,76.697,-30.013,76.697,4.592C76.697,4.592,76.697,22.963,76.697,22.963Z" /></g><g id="i29" transform="matrix(1,0,0,1,121.818,27.823)"><path fill="#ffffff" d="M9.173,2.656C9.256,5.587,6.863,9.091,4.122,9.39C1.554,9.671,-0.497,7.048,-2.611,4.342C-4.696,1.675,-9.255,-5.177,-7.439,-7.115C-5.045,-9.672,8.977,-4.258,9.173,2.656Z" /></g><g id="i30" transform="matrix(1,0,0,1,107.529,17.128)"><path fill="#ffffff" d="M2.182,0C2.182,1.205,1.204,2.182,-0.001,2.182C-1.206,2.182,-2.182,1.205,-2.182,0C-2.182,-1.205,-1.206,-2.182,-0.001,-2.182C1.204,-2.182,2.182,-1.205,2.182,0Z" /></g><g id="i26" transform="matrix(1,0,0,1,87.657,3.405)"><path fill="#ffffff" d="M9.483,3.099C9.327,3.121,9.227,2.204,8.463,0.786C8.463,0.786,8.106,0.124,7.698,-0.438C6.382,-2.248,1.925,-2.208,1.575,-2.205C-5.369,-2.144,-9.831,-2.584,-9.83,-2.543C-9.829,-2.507,-6.574,-2.574,-4.188,-2.622C2.544,-2.759,6.553,-3.121,8.272,-1.318C8.985,-0.57,9.343,0.404,9.343,0.404C9.831,1.726,9.669,3.072,9.483,3.099Z" /></g></g></g></g></g><g id="i23"><g transform="translate(273.389,222.954)"><animateTransform repeatCount="indefinite" type="translate" attributeName="transform" dur="4s" begin="0s" calcMode="spline" values="273.389 222.954; 273.389 202.954; 273.389 222.954; 273.389 202.954; 273.389 222.954" keyTimes="0; 0.25; 0.5; 0.75; 1" keySplines="0.333 0 0.667 1; 0.333 0 0.667 1; 0.333 0 0.667 1; 0.333 0 0.667 1" fill="freeze" /><g transform="scale(1,1) translate(0,0)"><g id="i33"><g transform="translate(0,0)"><animateTransform repeatCount="indefinite" type="translate" attributeName="transform" dur="4s" begin="0s" calcMode="spline" values="0 0; -8 0; -8 0; 0 0; 0 0" keyTimes="0; 0.083333; 0.5; 0.583333; 1" keySplines="0 0 1 1; 0 0 1 1; 0 0 1 1; 0 0 1 1" fill="freeze" /><g transform="scale(1,1) translate(0,0)"><g transform="matrix(1,0,0,1,-23.389,27.046)" id="i34"><g transform="matrix(1,0,0,1,-59.653,-93.601)" id="i35"><g id="i36" transform="matrix(1,0,0,1,76.946,66.73)"><path fill="url(#i5)" d="M52.57,21.564C52.57,21.564,52.57,21.564,52.57,21.564C50.562,22.556,48.313,23.076,46.026,23.076C46.026,23.076,-46.026,23.076,-46.026,23.076C-48.312,23.076,-50.562,22.556,-52.569,21.564C-57.499,19.127,-60.282,14.207,-59.585,9.158C-59.585,9.158,-59.534,8.79,-59.534,8.79C-57.176,-8.309,-41.689,-21.455,-22.704,-22.442C-14.671,-22.86,-6.241,-23.076,2.552,-23.025C9.441,-22.985,16.099,-22.783,22.509,-22.453C41.567,-21.47,57.168,-8.376,59.535,8.788C59.551,8.911,59.569,9.034,59.586,9.158C60.282,14.207,57.5,19.127,52.57,21.564Z" /></g><g id="i37" transform="matrix(1,0,0,1,117.48,59.382)"><path fill="#ffffff" d="M13.497,12.012C12.797,12.506,7.917,2.566,-5.18,-6.052C-9.783,-9.082,-14.329,-11.24,-14.059,-11.868C-13.785,-12.506,-8.666,-11.32,-4.567,-9.419C8.49,-3.361,14.329,11.425,13.497,12.012Z" /></g></g></g></g></g></g></g></g></g><g id="i23"><g transform="translate(273.389,222.954)"><animateTransform repeatCount="indefinite" type="translate" attributeName="transform" dur="4s" begin="0s" calcMode="spline" values="273.389 222.954; 273.389 202.954; 273.389 222.954; 273.389 202.954; 273.389 222.954" keyTimes="0; 0.25; 0.5; 0.75; 1" keySplines="0.333 0 0.667 1; 0.333 0 0.667 1; 0.333 0 0.667 1; 0.333 0 0.667 1" fill="freeze" /><g transform="scale(1,1) translate(0,0)"><g id="i33"><g transform="translate(0,0)"><animateTransform repeatCount="indefinite" type="translate" attributeName="transform" dur="4s" begin="0s" calcMode="spline" values="0 0; -8 0; -8 0; 0 0; 0 0" keyTimes="0; 0.083333; 0.5; 0.583333; 1" keySplines="0 0 1 1; 0 0 1 1; 0 0 1 1; 0 0 1 1" fill="freeze" /><g transform="scale(1,1) translate(0,0)"><g transform="matrix(1,0,0,1,-23.389,27.046)" id="i34"><g transform="matrix(1,0,0,1,40,-25)" id="i38"><g id="i39"><rect ry="35" rx="35" height="35" width="35" y="-17.5" x="-17.5" fill="url(#i6)"><animate repeatCount="indefinite" attributeName="height" dur="4s" begin="0s" fill="freeze" values="35; 35; 0; 35; 35" keyTimes="0; 0.25; 0.291667; 0.333333; 1" keySplines="0 0 1 1; 0 0 1 1; 0 0 1 1; 0 0 1 1" calcMode="spline" /></rect></g><g id="i40"><rect ry="25" rx="25" height="25" width="25" y="-12.5" x="-12.5" fill="#ffffff"><animate repeatCount="indefinite" attributeName="height" dur="4s" begin="0s" fill="freeze" values="25; 25; 0; 25; 25" keyTimes="0; 0.25; 0.291667; 0.333333; 1" keySplines="0 0 1 1; 0 0 1 1; 0 0 1 1; 0 0 1 1" calcMode="spline" /></rect></g><g id="i41"><rect ry="20" rx="20" height="20" width="20" y="-10" x="-10" fill="#05131d"><animate repeatCount="indefinite" attributeName="height" dur="4s" begin="0s" fill="freeze" values="20; 20; 0; 20; 20" keyTimes="0; 0.25; 0.291667; 0.333333; 1" keySplines="0 0 1 1; 0 0 1 1; 0 0 1 1; 0 0 1 1" calcMode="spline" /></rect></g></g></g></g></g></g></g></g></g><g id="i23"><g transform="translate(273.389,222.954)"><animateTransform repeatCount="indefinite" type="translate" attributeName="transform" dur="4s" begin="0s" calcMode="spline" values="273.389 222.954; 273.389 202.954; 273.389 222.954; 273.389 202.954; 273.389 222.954" keyTimes="0; 0.25; 0.5; 0.75; 1" keySplines="0.333 0 0.667 1; 0.333 0 0.667 1; 0.333 0 0.667 1; 0.333 0 0.667 1" fill="freeze" /><g transform="scale(1,1) translate(0,0)"><g id="i33"><g transform="translate(0,0)"><animateTransform repeatCount="indefinite" type="translate" attributeName="transform" dur="4s" begin="0s" calcMode="spline" values="0 0; -8 0; -8 0; 0 0; 0 0" keyTimes="0; 0.083333; 0.5; 0.583333; 1" keySplines="0 0 1 1; 0 0 1 1; 0 0 1 1; 0 0 1 1" fill="freeze" /><g transform="scale(1,1) translate(0,0)"><g transform="matrix(1,0,0,1,-23.389,27.046)" id="i34"><g transform="matrix(1,0,0,1,-7,-25)" id="i42"><g id="i39"><rect ry="35" rx="35" height="35" width="35" y="-17.5" x="-17.5" fill="url(#i7)"><animate repeatCount="indefinite" attributeName="height" dur="4s" begin="0s" fill="freeze" values="35; 35; 0; 35; 35" keyTimes="0; 0.25; 0.291667; 0.333333; 1" keySplines="0 0 1 1; 0 0 1 1; 0 0 1 1; 0 0 1 1" calcMode="spline" /></rect></g><g id="i40"><rect ry="25" rx="25" height="25" width="25" y="-12.5" x="-12.5" fill="#ffffff"><animate repeatCount="indefinite" attributeName="height" dur="4s" begin="0s" fill="freeze" values="25; 25; 0; 25; 25" keyTimes="0; 0.25; 0.291667; 0.333333; 1" keySplines="0 0 1 1; 0 0 1 1; 0 0 1 1; 0 0 1 1" calcMode="spline" /></rect></g><g id="i41"><rect ry="20" rx="20" height="20" width="20" y="-10" x="-10" fill="#05131d"><animate repeatCount="indefinite" attributeName="height" dur="4s" begin="0s" fill="freeze" values="20; 20; 0; 20; 20" keyTimes="0; 0.25; 0.291667; 0.333333; 1" keySplines="0 0 1 1; 0 0 1 1; 0 0 1 1; 0 0 1 1" calcMode="spline" /></rect></g><g id="i43"><path fill="#05131d" d="M10,0C10,5.523,5.523,10,0,10C-5.523,10,-10,5.523,-10,0C-10,-5.523,-5.523,-10,0,-10C5.523,-10,10,-5.523,10,0Z" /></g></g></g></g></g></g></g></g></g><g id="i23"><g transform="translate(273.389,222.954)"><animateTransform repeatCount="indefinite" type="translate" attributeName="transform" dur="4s" begin="0s" calcMode="spline" values="273.389 222.954; 273.389 202.954; 273.389 222.954; 273.389 202.954; 273.389 222.954" keyTimes="0; 0.25; 0.5; 0.75; 1" keySplines="0.333 0 0.667 1; 0.333 0 0.667 1; 0.333 0 0.667 1; 0.333 0 0.667 1" fill="freeze" /><g transform="scale(1,1) translate(0,0)"><g id="i33"><g transform="translate(0,0)"><animateTransform repeatCount="indefinite" type="translate" attributeName="transform" dur="4s" begin="0s" calcMode="spline" values="0 0; -8 0; -8 0; 0 0; 0 0" keyTimes="0; 0.083333; 0.5; 0.583333; 1" keySplines="0 0 1 1; 0 0 1 1; 0 0 1 1; 0 0 1 1" fill="freeze" /><g transform="scale(1,1) translate(0,0)"><g transform="matrix(1,0,0,1,-23.389,27.046)" id="i34"><g transform="matrix(1,0,0,1,-24.326,-47.242)" id="i44"><g mask="url(#i8)" id="i45"><g id="i46" transform="matrix(1,0,0,1,20.185,19.61)"><path fill="#ffffff" d="M3.877,-0.001C3.877,2.14,2.142,3.876,0.001,3.876C-2.141,3.876,-3.877,2.14,-3.877,-0.001C-3.877,-2.142,-2.141,-3.876,0.001,-3.876C2.142,-3.876,3.877,-2.142,3.877,-0.001Z" /></g><g id="i47" transform="matrix(1,0,0,1,15.811,30.346)"><path fill="#ffffff" d="M1.547,0C1.547,0.854,0.854,1.546,-0.001,1.546C-0.855,1.546,-1.547,0.854,-1.547,0C-1.547,-0.854,-0.855,-1.546,-0.001,-1.546C0.854,-1.546,1.547,-0.854,1.547,0Z" /></g><g id="i48" transform="matrix(1,0,0,1,11.202,28.026)"><path fill="#ffffff" d="M0.773,0C0.773,0.427,0.427,0.773,0,0.773C-0.427,0.773,-0.773,0.427,-0.773,0C-0.773,-0.427,-0.427,-0.773,0,-0.773C0.427,-0.773,0.773,-0.427,0.773,0Z" /></g><g id="i36" transform="matrix(1,0,0,1,67.077,19.61)"><path fill="#ffffff" d="M3.877,-0.001C3.877,2.14,2.14,3.876,-0.001,3.876C-2.142,3.876,-3.877,2.14,-3.877,-0.001C-3.877,-2.142,-2.142,-3.876,-0.001,-3.876C2.14,-3.876,3.877,-2.142,3.877,-0.001Z" /></g><g id="i29" transform="matrix(1,0,0,1,62.703,30.346)"><path fill="#ffffff" d="M1.547,0C1.547,0.854,0.854,1.546,-0.001,1.546C-0.854,1.546,-1.547,0.854,-1.547,0C-1.547,-0.854,-0.854,-1.546,-0.001,-1.546C0.854,-1.546,1.547,-0.854,1.547,0Z" /></g><g id="i30" transform="matrix(1,0,0,1,58.093,28.026)"><path fill="#ffffff" d="M0.774,0C0.774,0.427,0.428,0.773,0.001,0.773C-0.426,0.773,-0.774,0.427,-0.774,0C-0.774,-0.427,-0.426,-0.773,0.001,-0.773C0.428,-0.773,0.774,-0.427,0.774,0Z" /></g></g></g></g></g></g></g></g></g></g><g id="i23"><g transform="translate(273.389,222.954)"><animateTransform repeatCount="indefinite" type="translate" attributeName="transform" dur="4s" begin="0s" calcMode="spline" values="273.389 222.954; 273.389 202.954; 273.389 222.954; 273.389 202.954; 273.389 222.954" keyTimes="0; 0.25; 0.5; 0.75; 1" keySplines="0.333 0 0.667 1; 0.333 0 0.667 1; 0.333 0 0.667 1; 0.333 0 0.667 1" fill="freeze" /><g transform="scale(1,1) translate(0,0)"><g id="i33"><g transform="translate(0,0)"><animateTransform repeatCount="indefinite" type="translate" attributeName="transform" dur="4s" begin="0s" calcMode="spline" values="0 0; -8 0; -8 0; 0 0; 0 0" keyTimes="0; 0.083333; 0.5; 0.583333; 1" keySplines="0 0 1 1; 0 0 1 1; 0 0 1 1; 0 0 1 1" fill="freeze" /><g transform="scale(1,1) translate(0,0)"><g transform="matrix(1,0,0,1,-23.389,27.046)" opacity="0" id="i34" /></g></g></g></g></g></g><g id="i23"><g transform="translate(273.389,222.954)"><animateTransform repeatCount="indefinite" type="translate" attributeName="transform" dur="4s" begin="0s" calcMode="spline" values="273.389 222.954; 273.389 202.954; 273.389 222.954; 273.389 202.954; 273.389 222.954" keyTimes="0; 0.25; 0.5; 0.75; 1" keySplines="0.333 0 0.667 1; 0.333 0 0.667 1; 0.333 0 0.667 1; 0.333 0 0.667 1" fill="freeze" /><g transform="scale(1,1) translate(0,0)"><g id="i33"><g transform="translate(0,0)"><animateTransform repeatCount="indefinite" type="translate" attributeName="transform" dur="4s" begin="0s" calcMode="spline" values="0 0; -8 0; -8 0; 0 0; 0 0" keyTimes="0; 0.083333; 0.5; 0.583333; 1" keySplines="0 0 1 1; 0 0 1 1; 0 0 1 1; 0 0 1 1" fill="freeze" /><g transform="scale(1,1) translate(0,0)"><g id="i49"><g transform="translate(-2.54,27.714)"><g transform="rotate(0)"><animateTransform repeatCount="indefinite" type="rotate" attributeName="transform" dur="4s" begin="0s" calcMode="spline" values="0; 5; 5; 0; 0" keyTimes="0; 0.083333; 0.5; 0.583333; 1" keySplines="0 0 1 1; 0 0 1 1; 0 0 1 1; 0 0 1 1" fill="freeze" /><g transform="scale(1,1) translate(-15.546,-0.266)"><g id="i30" transform="matrix(1,0,0,1,15.544,4.493)"><path fill="#ffffff" d="M15.195,-1.24C15.026,0.423,13.641,1.704,11.977,1.865C11.977,1.865,-11.017,4.082,-11.017,4.082C-12.68,4.243,-14.284,3.251,-14.769,1.652C-14.984,0.942,-15.15,0.206,-15.263,-0.547C-15.294,-0.756,-15.239,-0.968,-15.109,-1.134C-14.979,-1.3,-14.787,-1.404,-14.577,-1.425C-14.577,-1.425,14.432,-4.223,14.432,-4.223C14.638,-4.243,14.844,-4.177,15.001,-4.04C15.158,-3.904,15.252,-3.71,15.26,-3.502C15.294,-2.738,15.271,-1.982,15.195,-1.24Z" /></g><g id="i26" transform="matrix(1,0,0,1,15.805,10.455)"><path fill="url(#i9)" d="M14.935,-7.201C14.201,-0.073,8.534,5.787,1.13,6.494C-6.172,7.201,-12.767,2.673,-14.935,-4.032C-14.356,-2.598,-12.85,-1.726,-11.279,-1.883C-11.279,-1.883,11.72,-4.097,11.72,-4.097C13.383,-4.262,14.761,-5.538,14.935,-7.201Z" /></g></g></g></g></g></g></g></g></g></g></g><g id="i23"><g transform="translate(273.389,222.954)"><animateTransform repeatCount="indefinite" type="translate" attributeName="transform" dur="4s" begin="0s" calcMode="spline" values="273.389 222.954; 273.389 202.954; 273.389 222.954; 273.389 202.954; 273.389 222.954" keyTimes="0; 0.25; 0.5; 0.75; 1" keySplines="0.333 0 0.667 1; 0.333 0 0.667 1; 0.333 0 0.667 1; 0.333 0 0.667 1" fill="freeze" /><g transform="scale(1,1) translate(0,0)"><g opacity="0" id="i33"><g transform="translate(0,0)"><animateTransform repeatCount="indefinite" type="translate" attributeName="transform" dur="4s" begin="0s" calcMode="spline" values="0 0; -8 0; -8 0; 0 0; 0 0" keyTimes="0; 0.083333; 0.5; 0.583333; 1" keySplines="0 0 1 1; 0 0 1 1; 0 0 1 1; 0 0 1 1" fill="freeze" /><g transform="scale(1,1) translate(0,0)" /></g></g></g></g></g><g id="i23"><g transform="translate(273.389,222.954)"><animateTransform repeatCount="indefinite" type="translate" attributeName="transform" dur="4s" begin="0s" calcMode="spline" values="273.389 222.954; 273.389 202.954; 273.389 222.954; 273.389 202.954; 273.389 222.954" keyTimes="0; 0.25; 0.5; 0.75; 1" keySplines="0.333 0 0.667 1; 0.333 0 0.667 1; 0.333 0 0.667 1; 0.333 0 0.667 1" fill="freeze" /><g transform="scale(1,1) translate(0,0)"><g transform="matrix(1,0,0,1,-53.702,64.046)" id="i24"><g id="i30" transform="matrix(1,0,0,1,51.417,39.59)"><path fill="url(#i10)" d="M51.167,-21.292C51.167,-21.081,51.167,-20.879,51.158,-20.686C51.085,-18.757,50.634,-17.305,50.413,-16.652C44.084,2.683,40.291,12.878,34.973,21.126C34.054,22.55,33.09,23.918,32.052,25.26C30.692,27.051,29.204,28.796,27.551,30.596C23.877,34.592,18.321,36.401,16.529,37.025C9.98,39.341,4.193,38.917,0.345,38.954C0.345,38.954,-0.326,38.954,-0.326,38.954C-4.184,38.917,-9.961,39.341,-16.51,37.025C-18.301,36.401,-23.868,34.592,-27.533,30.596C-37.637,19.602,-41.522,10.462,-50.395,-16.652C-50.606,-17.277,-51.027,-18.628,-51.128,-20.438C-51.156,-20.961,-51.167,-21.484,-51.139,-22.008C-50.946,-25.25,-49.631,-28.428,-47.298,-31.33C-43.303,-36.309,-37.13,-39.037,-30.747,-39.064C-30.747,-39.064,0.014,-39.193,0.014,-39.193C0.014,-39.193,30.215,-39.312,30.215,-39.312C36.736,-39.34,43.056,-36.603,47.198,-31.561C49.2,-29.117,50.478,-26.48,50.945,-23.762C51.01,-23.376,51.065,-22.981,51.102,-22.596C51.139,-22.164,51.167,-21.733,51.167,-21.292Z" /></g><g id="i26" transform="matrix(1,0,0,1,25.85,8.921)"><path fill="url(#i11)" d="M25.576,-8.52C25.576,-8.52,-5.185,-8.391,-5.185,-8.391C-11.569,-8.364,-17.741,-5.635,-21.737,-0.658C-24.07,2.246,-25.383,5.423,-25.576,8.666C-25.42,5.34,-24.051,2.08,-21.617,-0.887C-17.484,-5.93,-11.155,-8.666,-4.634,-8.639C-4.634,-8.639,25.576,-8.52,25.576,-8.52Z" /></g></g></g></g></g><g opacity="0" id="i23"><g transform="translate(273.389,222.954)"><animateTransform repeatCount="indefinite" type="translate" attributeName="transform" dur="4s" begin="0s" calcMode="spline" values="273.389 222.954; 273.389 202.954; 273.389 222.954; 273.389 202.954; 273.389 222.954" keyTimes="0; 0.25; 0.5; 0.75; 1" keySplines="0.333 0 0.667 1; 0.333 0 0.667 1; 0.333 0 0.667 1; 0.333 0 0.667 1" fill="freeze" /><g transform="scale(1,1) translate(0,0)" /></g></g><g id="i23"><g transform="translate(273.389,222.954)"><animateTransform repeatCount="indefinite" type="translate" attributeName="transform" dur="4s" begin="0s" calcMode="spline" values="273.389 222.954; 273.389 202.954; 273.389 222.954; 273.389 202.954; 273.389 222.954" keyTimes="0; 0.25; 0.5; 0.75; 1" keySplines="0.333 0 0.667 1; 0.333 0 0.667 1; 0.333 0 0.667 1; 0.333 0 0.667 1" fill="freeze" /><g transform="scale(1,1) translate(0,0)"><g transform="matrix(1,0,0,1,-53.702,64.046)" id="i24"><g transform="matrix(1,0,0,1,74.327,5.706)" id="i50"><g id="i36" transform="matrix(1,0,0,1,19.394,29.057)"><path fill="url(#i12)" d="M-11.72,10.957C-12.169,-12.904,-15.399,-17.622,-10.637,-23.299C-10.09,-23.951,-7.296,-27.28,-2.703,-28.13C0.957,-28.807,4.278,-27.634,5.849,-26.743C15.398,-21.334,12.564,2.117,6.275,16.921C4.904,20.148,1.225,28.806,-3.259,28.6C-5.096,28.515,-6.45,26.971,-7.402,25.857C-11.607,20.933,-11.653,14.555,-11.72,10.957Z" /></g><g id="i29" transform="matrix(1,0,0,1,6.156,32.475)"><path fill="url(#i13)" d="M5.907,22.536C4.988,23.96,4.023,25.328,2.985,26.67C2.654,26.33,2.36,25.99,2.094,25.678C-2.113,20.755,-2.158,14.38,-2.223,10.779C-2.673,-13.084,-5.907,-17.796,-1.139,-23.473C-0.79,-23.895,0.487,-25.411,2.562,-26.67C-2.14,-21.012,1.065,-16.253,1.515,7.537C1.58,11.138,1.635,17.512,5.833,22.444C5.86,22.472,5.888,22.5,5.907,22.536Z" /></g><g id="i30" transform="matrix(1,0,0,1,25.719,14.393)"><path fill="#ffffff" d="M-0.191,5.752C-0.326,3.188,-0.807,1.302,-1.769,-2.47C-3.027,-7.403,-4.605,-9.809,-3.58,-10.761C-2.913,-11.381,-1.598,-10.962,-1.301,-10.867C3.208,-9.429,4.605,-0.967,4.412,4.328C4.292,7.57,3.5,11.195,2.313,11.356C2.125,11.381,1.66,11.356,1.327,11.062C0.001,9.89,-0.088,7.7,-0.191,5.752Z" /></g><g id="i26" transform="matrix(1,0,0,1,27.689,29.193)"><path fill="#ffffff" d="M0.936,-0.001C0.936,0.516,0.517,0.937,0,0.937C-0.517,0.937,-0.936,0.516,-0.936,-0.001C-0.936,-0.518,-0.517,-0.937,0,-0.937C0.517,-0.937,0.936,-0.518,0.936,-0.001Z" /></g></g></g></g></g></g><g id="i51"><g transform="translate(269.742,388.555)"><g transform="scale(1,1)"><animateTransform repeatCount="indefinite" type="scale" attributeName="transform" dur="4s" begin="0s" calcMode="spline" values="1 1; 1.5 1.5; 1 1; 1.5 1.5; 1 1" keyTimes="0; 0.25; 0.5; 0.75; 1" keySplines="0.333 0 0.667 1; 0.333 0 0.667 1; 0.333 0 0.667 1; 0.333 0 0.667 1" fill="freeze" /><g transform="translate(-49.07,-20.088)"><g id="i52" transform="matrix(2.45,0,0,1,49.078,20.033)"><ellipse ry="20" rx="20" cy="0" cx="0" fill="url(#i14)" /></g></g></g></g></g><g id="i53"><g transform="translate(181.007,234.65)"><g transform="scale(0,0)"><animateTransform repeatCount="indefinite" type="scale" attributeName="transform" dur="4s" begin="0s" calcMode="spline" values="0 0; 0 0; 1 1; 1 1" keyTimes="0; 0.083333; 0.166666; 1" keySplines="0 0 1 1; 0.333 0 0 1; 0 0 1 1" fill="freeze" /><g transform="translate(-162.224,-115.604)"><g id="i54" transform="matrix(1,0,0,1,128.536,98.328)"><path fill="url(#i15)" d="M14.152,-17.277C14.152,-17.277,16.227,10.68,27.861,17.277C27.861,17.277,-9.492,10.827,-18.677,-3.163C-27.862,-17.152,14.152,-17.277,14.152,-17.277Z" /></g><g id="i55" transform="matrix(1,0,0,1,81.237,47.707)"><path fill="url(#i16)" d="M33.53,47.457C33.53,47.457,-33.53,47.457,-33.53,47.457C-59.632,47.457,-80.987,26.102,-80.987,0C-80.987,-26.101,-59.632,-47.457,-33.53,-47.457C-33.53,-47.457,33.53,-47.457,33.53,-47.457C59.631,-47.457,80.987,-26.101,80.987,0C80.987,26.102,59.631,47.457,33.53,47.457Z" /></g><g id="i56" transform="matrix(1,0,0,1,37.316,50.494)"><path fill="url(#i17)" d="M13.84,15.373C13.865,15.919,12.256,16.267,9.012,16.415C5.768,16.565,4.134,16.367,4.109,15.82C4.109,15.82,3.6,4.741,3.6,4.741C3.6,4.741,-3.144,5.051,-3.144,5.051C-3.144,5.051,-2.635,16.13,-2.635,16.13C-2.61,16.677,-4.22,17.024,-7.463,17.173C-10.707,17.322,-12.341,17.124,-12.366,16.578C-12.366,16.578,-13.834,-15.361,-13.834,-15.361C-13.865,-16.035,-12.259,-16.447,-9.015,-16.596C-5.772,-16.745,-4.134,-16.482,-4.103,-15.808C-4.103,-15.808,-3.583,-4.487,-3.583,-4.487C-3.583,-4.487,3.161,-4.797,3.161,-4.797C3.161,-4.797,2.646,-16.022,2.646,-16.022C2.625,-16.471,3.413,-16.83,5.01,-17.096C5.841,-17.198,6.659,-17.268,7.462,-17.305C7.462,-17.305,9.923,-17.322,9.923,-17.322C11.538,-17.203,12.356,-16.919,12.377,-16.469C12.377,-16.469,13.84,15.373,13.84,15.373Z" /></g><g id="i57" transform="matrix(1,0,0,1,64.843,53.958)"><path fill="url(#i18)" fill-rule="evenodd" d="M9.077,10.38C7.108,11.662,4.535,12.374,1.355,12.521C-1.824,12.667,-4.557,11.707,-6.84,9.639C-9.124,7.572,-10.353,4.62,-10.529,0.782C-10.705,-3.055,-9.797,-6.195,-7.801,-8.637C-5.805,-11.077,-3.201,-12.372,0.01,-12.52C3.221,-12.667,5.74,-11.963,7.566,-10.406C9.392,-8.849,10.359,-6.897,10.467,-4.553C10.706,0.65,7.839,3.388,1.866,3.663C1.866,3.663,-1.46,3.816,-1.46,3.816C-1.415,4.779,-1.12,5.434,-0.573,5.778C-0.025,6.123,0.762,6.273,1.79,6.226C4.038,6.122,6.15,5.511,8.126,4.39C8.156,4.357,8.311,4.574,8.59,5.044C9.424,6.39,9.864,7.537,9.907,8.484C9.951,9.431,9.673,10.064,9.077,10.38ZM2.416,-3.266C2.354,-4.615,1.665,-5.258,0.348,-5.197C-0.263,-5.169,-0.777,-4.96,-1.193,-4.572C-1.61,-4.182,-1.802,-3.635,-1.769,-2.929C-1.769,-2.929,-1.701,-1.434,-1.701,-1.434C-1.701,-1.434,0.9,-1.554,0.9,-1.554C1.96,-1.602,2.466,-2.174,2.416,-3.266Z" /></g><g id="i58" transform="matrix(1,0,0,1,82.79,48.323)"><path fill="url(#i19)" d="M5.141,16.288C5.154,16.577,3.523,16.797,0.247,16.947C-2.324,17.033,-3.614,16.964,-3.624,16.739C-3.624,16.739,-5.132,-16.066,-5.132,-16.066C-5.154,-16.548,-3.608,-16.86,-0.493,-17.004C2.241,-17.033,3.614,-16.935,3.624,-16.71C3.624,-16.71,5.141,16.288,5.141,16.288Z" /></g><g id="i59" transform="matrix(1,0,0,1,95.893,47.721)"><path fill="url(#i20)" d="M5.141,16.288C5.154,16.577,3.523,16.796,0.247,16.947C-2.324,17.033,-3.614,16.964,-3.624,16.739C-3.624,16.739,-5.132,-16.067,-5.132,-16.067C-5.154,-16.548,-3.609,-16.861,-0.493,-17.004C2.241,-17.033,3.614,-16.935,3.624,-16.711C3.624,-16.711,5.141,16.288,5.141,16.288Z" /></g><g id="i60" transform="matrix(1,0,0,1,115.022,51.683)"><path fill="url(#i21)" fill-rule="evenodd" d="M-7.67,9.574C-9.779,7.45,-10.924,4.429,-11.104,0.511C-11.284,-3.407,-10.421,-6.521,-8.516,-8.829C-6.611,-11.137,-3.956,-12.369,-0.552,-12.525C2.852,-12.682,5.601,-11.698,7.694,-9.574C9.787,-7.449,10.924,-4.428,11.104,-0.51C11.284,3.409,10.429,6.521,8.54,8.829C6.651,11.136,4.003,12.368,0.6,12.524C-2.804,12.681,-5.561,11.697,-7.67,9.574ZM-0.158,-4.482C-1.972,-4.399,-2.812,-2.879,-2.676,0.075C-2.54,3.03,-1.565,4.465,0.25,4.382C2.064,4.299,2.904,2.78,2.767,-0.175C2.632,-3.129,1.656,-4.565,-0.158,-4.482Z" /></g><g id="i61" transform="matrix(1,0,0,1,133.819,45.825)"><path fill="url(#i22)" fill-rule="evenodd" d="M-4.053,10.008C-4.064,9.783,-2.584,9.603,0.387,9.467C3.357,9.33,4.847,9.357,4.856,9.55C4.856,9.55,5.175,16.488,5.175,16.488C5.19,16.809,3.711,17.038,0.741,17.174C-2.229,17.311,-3.719,17.282,-3.728,17.089C-3.728,17.089,-4.053,10.008,-4.053,10.008ZM3.762,6.752C3.771,6.945,2.627,7.095,0.331,7.2C-1.966,7.306,-3.117,7.279,-3.124,7.118C-3.124,7.118,-5.179,-16.588,-5.179,-16.588C-5.191,-16.845,-3.728,-17.04,-0.789,-17.175C2.149,-17.31,3.624,-17.266,3.634,-17.041C3.634,-17.041,3.762,6.752,3.762,6.752Z" /></g><g id="i62" transform="matrix(1,0,0,1,135.626,38.909)"><path fill="#ffffff" d="M0.73,9.068C0.73,9.068,-1.169,-8.131,-0.225,-8.6C0.719,-9.069,1.168,0.326,0.73,9.068Z" /></g><g id="i63" transform="matrix(1,0,0,1,137.205,56.663)"><path fill="#ffffff" d="M1.034,0C1.034,0.571,0.57,1.033,-0.001,1.033C-0.571,1.033,-1.033,0.571,-1.033,0C-1.033,-0.571,-0.571,-1.033,-0.001,-1.033C0.57,-1.033,1.034,-0.571,1.034,0Z" /></g><g id="i64" transform="matrix(1,0,0,1,120.646,44.912)"><path fill="#ffffff" d="M4.061,4.218C4.067,3.259,3.953,0.525,1.967,-1.691C0.26,-3.596,-2.023,-4.218,-3.062,-4.097C-3.26,-4.074,-3.932,-3.958,-3.976,-3.678C-4.067,-3.096,-1.321,-2.69,0.731,-1.151C1.879,-0.291,3.242,1.247,4.061,4.218Z" /></g><g id="i46" transform="matrix(1,0,0,1,98.502,44.443)"><path fill="#ffffff" d="M-0.516,-13.123C0.539,-13.133,0.94,6.154,0.633,9.644C0.327,13.133,-0.94,-13.119,-0.516,-13.123Z" /></g><g id="i47" transform="matrix(1,0,0,1,70.547,45.066)"><path fill="#ffffff" d="M3.578,2.768C3.116,0.16,0.139,-2.768,-1.719,-2.31C-3.578,-1.852,0.483,-0.442,1.938,0.816C3.394,2.075,3.578,2.768,3.578,2.768Z" /></g><g id="i48" transform="matrix(1,0,0,1,59.239,62.023)"><path fill="#ffffff" d="M-1.428,0.666C0.731,3.06,3.815,3.521,3.858,3.419C3.904,3.312,0.482,2.854,-1.319,0.106C-2.166,-1.187,-3.005,-3.521,-3.563,-3.521C-3.576,-3.521,-3.598,-3.521,-3.618,-3.506C-3.904,-3.298,-2.81,-0.867,-1.428,0.666Z" /></g><g id="i37" transform="matrix(1,0,0,1,47.186,48.396)"><path fill="#ffffff" d="M2.718,13.806C2.03,14.752,1.937,-9.588,1.497,-11.967C1.497,-11.967,1.497,-12.124,1.497,-12.124C1.488,-12.28,1.478,-12.591,1.469,-13.216C1.467,-13.354,1.34,-13.831,1.229,-13.932C0.327,-14.748,-3.637,-14.337,-1.948,-14.557C-0.455,-14.752,1.268,-14.607,1.707,-14.448C1.899,-14.379,1.91,-14.006,1.956,-13.868C2.819,-9.046,3.637,12.556,2.718,13.806Z" /></g><g id="i31" transform="matrix(1,0,0,1,134.115,20.115)"><path fill="#ffffff" d="M22.153,15.829C21.099,16.612,13.759,2.403,-4.57,-7.334C-14.882,-12.813,-23.294,-14.019,-23.075,-15.014C-22.817,-16.182,-10.796,-16.612,0.102,-11.16C16.47,-2.971,23.294,14.982,22.153,15.829Z" /></g><g id="i32" transform="matrix(1,0,0,1,157.645,41.419)"><path fill="#ffffff" d="M1.255,0C1.255,0.693,0.692,1.255,0,1.255C-0.694,1.255,-1.255,0.693,-1.255,0C-1.255,-0.693,-0.694,-1.255,0,-1.255C0.692,-1.255,1.255,-0.693,1.255,0Z" /></g><g id="i36" transform="matrix(1,0,0,1,59.422,5.314)"><path fill="#ffffff" d="M8.803,0C8.803,1.104,4.862,2,-0.001,2C-4.863,2,-8.803,1.104,-8.803,0C-8.803,-1.104,-4.863,-2,-0.001,-2C4.862,-2,8.803,-1.104,8.803,0Z" /></g><g id="i29" transform="matrix(1,0,0,1,76.612,5.314)"><path fill="#ffffff" d="M2.385,0C2.385,0.598,1.318,1.083,0.001,1.083C-1.316,1.083,-2.385,0.598,-2.385,0C-2.385,-0.598,-1.316,-1.083,0.001,-1.083C1.318,-1.083,2.385,-0.598,2.385,0Z" /></g><g id="i30" transform="matrix(1,0,0,1,32.467,40.642)"><path fill="#ffffff" d="M0.374,-0.021C0.547,3.046,0.521,5.542,0.314,5.554C0.107,5.565,-0.201,3.088,-0.374,0.021C-0.547,-3.046,-0.521,-5.542,-0.314,-5.554C-0.107,-5.565,0.201,-3.088,0.374,-0.021Z" /></g><g id="i26" transform="matrix(1,0,0,1,144.052,99.027)"><path fill="#ffffff" d="M0.832,2.261C2.263,6.279,3.761,8.627,3.415,8.844C3.026,9.089,0.444,6.532,-1.085,3.178C-3.76,-2.693,-2.322,-9.053,-1.751,-9.072C-1.271,-9.089,-1.615,-4.612,0.832,2.261Z" /></g></g></g></g></g></svg>